<svg xmlns="http://www.w3.org/2000/svg" xmlns:xlink="http://www.w3.org/1999/xlink" width="343" height="225.5" x="0" y="0" enable-background="new 0 0 343 225.5" version="1.1" viewBox="0 0 343 225.5" xml:space="preserve"><g id="outlines"><rect width="55" height="65" x="163.763" y="92" fill="none" stroke="#000" stroke-linecap="round" stroke-linejoin="round" stroke-width=".5"/><rect width="55" height="65" x="243.76" y="92" fill="none" stroke="#000" stroke-linecap="round" stroke-linejoin="round" stroke-width=".5"/><rect width="55" height="65" x="4" y="92" fill="none" stroke="#000" stroke-linecap="round" stroke-linejoin="round" stroke-width=".5"/><rect width="55" height="65" x="83.767" y="92" fill="none" stroke="#000" stroke-linecap="round" stroke-linejoin="round" stroke-width=".5"/></g><g id="text"><rect width="30.5" height="10" x="9.167" y="97.833" fill="none"/><text font-family="'Helvetica'" font-size="9" transform="matrix(1 0 0 1 9.1667 104.3041)">LIF1.1</text><rect width="30.5" height="10" x="9.167" y="114.5" fill="none"/><text font-family="'Helvetica'" font-size="9" transform="matrix(1 0 0 1 9.1667 120.9707)">LIF2.1</text><rect width="29" height="10" x="18.5" y="145.5" fill="none"/><text font-family="'Helvetica'" font-size="9" transform="matrix(1 0 0 1 18.5 151.9707)">node1</text><rect width="30" height="10" x="96.767" y="145.5" fill="none"/><text font-family="'Helvetica'" font-size="9" transform="matrix(1 0 0 1 96.7667 151.9707)">node2</text><rect width="30" height="10" x="176.263" y="145.5" fill="none"/><text font-family="'Helvetica'" font-size="9" transform="matrix(1 0 0 1 176.2635 151.9707)">node3</text><rect width="30" height="10" x="257.601" y="145.5" fill="none"/><text font-family="'Helvetica'" font-size="9" transform="matrix(1 0 0 1 257.6008 151.9707)">node4</text><rect width="30" height="10" x="87.267" y="114" fill="none"/><text font-family="'Helvetica'" font-size="9" transform="matrix(1 0 0 1 87.2667 120.4707)">LIF2.2</text><rect width="30" height="10" x="166.597" y="114" fill="none"/><text font-family="'Helvetica'" font-size="9" transform="matrix(1 0 0 1 166.5968 120.4707)">LIF2.3</text><rect width="30" height="10" x="246.928" y="114" fill="none"/><text font-family="'Helvetica'" font-size="9" transform="matrix(1 0 0 1 246.9278 120.4707)">LIF2.4</text><rect width="30" height="10" x="87.267" y="98" fill="none"/><text font-family="'Helvetica'" font-size="9" transform="matrix(1 0 0 1 87.2667 104.4707)">LIF1.2</text><rect width="32.166" height="9" x="299.26" y="115" fill="none"/><text font-family="'Helvetica'" font-size="9" transform="matrix(1 0 0 1 301.5904 121.4707)">SVM-2</text><rect width="32.166" height="9" x="299.26" y="97.833" fill="none"/><text font-family="'Helvetica'" font-size="9" transform="matrix(1 0 0 1 301.5904 104.3041)">SVM-1</text><g><g><g><g><path fill="none" stroke="#FFF" stroke-linecap="round" stroke-linejoin="round" stroke-width=".4" d="M95.475,178.732 v23.187c0,3.309-6.85,5.99-15.298,5.99c-8.448,0-15.297-2.682-15.297-5.99v-23.187H95.475z"/><ellipse cx="80.178" cy="178.732" fill="none" stroke="#FFF" stroke-linecap="round" stroke-linejoin="round" stroke-width=".4" rx="15.297" ry="5.99"/></g><path fill="none" stroke="#231F20" stroke-linecap="round" stroke-linejoin="round" stroke-width=".4" d="M95.475,178.732 v23.187c0,3.309-6.85,5.99-15.298,5.99c-8.448,0-15.297-2.682-15.297-5.99v-23.187H95.475z"/><ellipse cx="80.178" cy="178.732" fill="#FFF" stroke="#000" stroke-linecap="round" stroke-linejoin="round" stroke-width=".4" rx="15.297" ry="5.99"/></g><rect width="20.4" height="8" x="70.947" y="195.976" fill="none"/><text font-family="'Helvetica'" font-size="7.2" transform="matrix(1 0 0 1 70.9469 201.1533)">LUN1</text></g><g><g><g><path fill="none" stroke="#FFF" stroke-linecap="round" stroke-linejoin="round" stroke-width=".4" d="M69.08,192.51 v23.187c0,3.309-6.85,5.99-15.298,5.99c-8.448,0-15.297-2.682-15.297-5.99V192.51H69.08z"/><ellipse cx="53.783" cy="192.51" fill="none" stroke="#FFF" stroke-linecap="round" stroke-linejoin="round" stroke-width=".4" rx="15.297" ry="5.99"/></g><path fill="#FFF" stroke="#231F20" stroke-linecap="round" stroke-linejoin="round" stroke-width=".4" d="M69.08,192.51 v23.187c0,3.309-6.85,5.99-15.298,5.99c-8.448,0-15.297-2.682-15.297-5.99V192.51H69.08z"/><ellipse cx="53.783" cy="192.51" fill="#FFF" stroke="#000" stroke-linecap="round" stroke-linejoin="round" stroke-width=".4" rx="15.297" ry="5.99"/></g><rect width="20.4" height="8" x="44.952" y="209.754" fill="none"/><text font-family="'Helvetica'" font-size="7.2" transform="matrix(1 0 0 1 44.9522 214.9307)">LUN2</text></g></g><g><g><g><g><path fill="none" stroke="#FFF" stroke-linecap="round" stroke-linejoin="round" stroke-width=".4" d="M241.502,178.732 v23.187c0,3.309-6.85,5.99-15.298,5.99c-8.448,0-15.297-2.682-15.297-5.99v-23.187H241.502z"/><ellipse cx="226.205" cy="178.732" fill="none" stroke="#FFF" stroke-linecap="round" stroke-linejoin="round" stroke-width=".4" rx="15.297" ry="5.99"/></g><path fill="none" stroke="#231F20" stroke-linecap="round" stroke-linejoin="round" stroke-width=".4" d="M241.502,178.732 v23.187c0,3.309-6.85,5.99-15.298,5.99c-8.448,0-15.297-2.682-15.297-5.99v-23.187H241.502z"/><ellipse cx="226.205" cy="178.732" fill="#FFF" stroke="#000" stroke-linecap="round" stroke-linejoin="round" stroke-width=".4" rx="15.297" ry="5.99"/></g><rect width="20.4" height="8" x="216.974" y="195.976" fill="none"/><text font-family="'Helvetica'" font-size="7.2" transform="matrix(1 0 0 1 216.9743 201.1533)">LUN3</text></g><g><g><g><path fill="none" stroke="#FFF" stroke-linecap="round" stroke-linejoin="round" stroke-width=".4" d="M268.441,192.51 v23.187c0,3.309-6.85,5.99-15.298,5.99c-8.448,0-15.297-2.682-15.297-5.99V192.51H268.441z"/><ellipse cx="253.144" cy="192.51" fill="none" stroke="#FFF" stroke-linecap="round" stroke-linejoin="round" stroke-width=".4" rx="15.297" ry="5.99"/></g><path fill="#FFF" stroke="#231F20" stroke-linecap="round" stroke-linejoin="round" stroke-width=".4" d="M268.441,192.51 v23.187c0,3.309-6.85,5.99-15.298,5.99c-8.448,0-15.297-2.682-15.297-5.99V192.51H268.441z"/><ellipse cx="253.144" cy="192.51" fill="#FFF" stroke="#000" stroke-linecap="round" stroke-linejoin="round" stroke-width=".4" rx="15.297" ry="5.99"/></g><rect width="20.4" height="8" x="244.313" y="209.754" fill="none"/><text font-family="'Helvetica'" font-size="7.2" transform="matrix(1 0 0 1 244.3133 214.9307)">LUN4</text></g></g><g><rect width="68.5" height="10" x="116.231" y="182.999" fill="none"/><text font-family="'Helvetica'" font-size="9" transform="matrix(1 0 0 1 118.4736 189.4706)">Cluster Network</text><path fill="none" stroke="#000" stroke-linecap="round" stroke-linejoin="round" stroke-width=".493" d="M181.283,194.664 H119.68c-3.96,0-7.2-3.24-7.2-7.2v-2.484c0-3.96,3.24-7.2,7.2-7.2h61.603c3.96,0,7.2,3.24,7.2,7.2v2.484 C188.483,191.424,185.243,194.664,181.283,194.664z"/></g><path fill="none" stroke="#000" stroke-dasharray="3.095" stroke-linecap="round" stroke-linejoin="round" stroke-width=".509" d="M334.094,125H6.899c-0.495,0-0.9-0.405-0.9-0.9v-12.688c0-0.495,0.405-0.9,0.9-0.9h327.194c0.495,0,0.9,0.405,0.9,0.9V124.1 C334.994,124.595,334.589,125,334.094,125z"/><path fill="none" stroke="#000" stroke-dasharray="3.095" stroke-linecap="round" stroke-linejoin="round" stroke-width=".509" d="M334.094,108.333H6.899c-0.495,0-0.9-0.405-0.9-0.9V94.745c0-0.495,0.405-0.9,0.9-0.9h327.194c0.495,0,0.9,0.405,0.9,0.9v12.688 C334.994,107.928,334.589,108.333,334.094,108.333z"/><g><rect width="12" height="9" x="28.666" y="82.167" fill="none"/><text font-family="'Helvetica'" font-size="9" transform="matrix(1 0 0 1 28.6659 88.6374)">0d</text><rect width="12" height="9" x="11.916" y="82.167" fill="none"/><text font-family="'Helvetica'" font-size="9" transform="matrix(1 0 0 1 11.9159 88.6374)">0c</text><polygon fill="none" stroke="#000" stroke-linecap="round" stroke-linejoin="round" stroke-width=".5" points="42.333 79 25.667 79 8.667 79 8.667 92 42.333 92"/><line x1="25.667" x2="25.667" y1="92" y2="79.083" fill="none" stroke="#000" stroke-linecap="round" stroke-linejoin="round" stroke-width=".5"/></g><g><rect width="12" height="9" x="108.433" y="82.167" fill="none"/><text font-family="'Helvetica'" font-size="9" transform="matrix(1 0 0 1 108.4325 88.6374)">0d</text><rect width="12" height="9" x="91.683" y="82.167" fill="none"/><text font-family="'Helvetica'" font-size="9" transform="matrix(1 0 0 1 91.6825 88.6374)">0c</text><polygon fill="none" stroke="#000" stroke-linecap="round" stroke-linejoin="round" stroke-width=".5" points="122.1 79 105.434 79 88.433 79 88.433 92 122.1 92"/><line x1="105.433" x2="105.433" y1="92" y2="79.083" fill="none" stroke="#000" stroke-linecap="round" stroke-linejoin="round" stroke-width=".5"/></g><g><rect width="12" height="9" x="188.429" y="82.167" fill="none"/><text font-family="'Helvetica'" font-size="9" transform="matrix(1 0 0 1 188.4293 88.6374)">0d</text><rect width="12" height="9" x="171.679" y="82.167" fill="none"/><text font-family="'Helvetica'" font-size="9" transform="matrix(1 0 0 1 171.6793 88.6374)">0c</text><polygon fill="none" stroke="#000" stroke-linecap="round" stroke-linejoin="round" stroke-width=".5" points="202.097 79 185.431 79 168.43 79 168.43 92 202.097 92"/><line x1="185.43" x2="185.43" y1="92" y2="79.083" fill="none" stroke="#000" stroke-linecap="round" stroke-linejoin="round" stroke-width=".5"/></g><g><rect width="12" height="9" x="268.426" y="82.167" fill="none"/><text font-family="'Helvetica'" font-size="9" transform="matrix(1 0 0 1 268.4262 88.6374)">0d</text><rect width="12" height="9" x="251.676" y="82.167" fill="none"/><text font-family="'Helvetica'" font-size="9" transform="matrix(1 0 0 1 251.6762 88.6374)">0c</text><polygon fill="none" stroke="#000" stroke-linecap="round" stroke-linejoin="round" stroke-width=".5" points="282.094 79 265.427 79 248.427 79 248.427 92 282.094 92"/><line x1="265.427" x2="265.427" y1="92" y2="79.083" fill="none" stroke="#000" stroke-linecap="round" stroke-linejoin="round" stroke-width=".5"/></g><g><path fill="#FFF" stroke="#000" stroke-linecap="round" stroke-linejoin="round" stroke-width=".5" d="M65.449,46.496 h-21.9c-0.99,0-1.8-0.81-1.8-1.8v-20.9c0-0.99,0.81-1.8,1.8-1.8h21.9c0.99,0,1.8,0.81,1.8,1.8v20.9 C67.249,45.686,66.439,46.496,65.449,46.496z"/><g><text font-family="'Helvetica'" font-size="9" transform="matrix(1 0 0 1 41.4933 17.496)">Host 1</text></g><g><text font-family="'Helvetica'" font-size="9" transform="matrix(1 0 0 1 45.4947 31.496)">APP</text></g><path fill="none" stroke="#000" stroke-linecap="round" stroke-linejoin="round" stroke-width=".5" d="M69.796,54.496H39.201 c-3.96,0-7.2-3.24-7.2-7.2v-36.6c0-3.96,3.24-7.2,7.2-7.2h30.595c3.96,0,7.2,3.24,7.2,7.2v36.6 C76.996,51.256,73.756,54.496,69.796,54.496z"/></g><g><path fill="#FFF" stroke="#000" stroke-linecap="round" stroke-linejoin="round" stroke-width=".5" d="M136.449,46.496 h-21.9c-0.99,0-1.8-0.81-1.8-1.8v-20.9c0-0.99,0.81-1.8,1.8-1.8h21.9c0.99,0,1.8,0.81,1.8,1.8v20.9 C138.249,45.686,137.439,46.496,136.449,46.496z"/><g><text font-family="'Helvetica'" font-size="9" transform="matrix(1 0 0 1 112.4933 17.496)">Host 2</text></g><g><text font-family="'Helvetica'" font-size="9" transform="matrix(1 0 0 1 116.4947 31.496)">APP</text></g><path fill="none" stroke="#000" stroke-linecap="round" stroke-linejoin="round" stroke-width=".5" d="M140.796,54.496 h-30.595c-3.96,0-7.2-3.24-7.2-7.2v-36.6c0-3.96,3.24-7.2,7.2-7.2h30.595c3.96,0,7.2,3.24,7.2,7.2v36.6 C147.996,51.256,144.756,54.496,140.796,54.496z"/></g><line x1="41.749" x2="16.5" y1="44.696" y2="79" fill="none" stroke="#000"/><line x1="67" x2="91" y1="46" y2="78" fill="none" stroke="#000" stroke-dasharray="3.095"/><line x1="112.749" x2="20" y1="44.696" y2="78.5" fill="none" stroke="#000"/><line x1="138.249" x2="257" y1="44.696" y2="78.5" fill="none" stroke="#000"/><line x1="122" x2="97" y1="46.5" y2="78.5" fill="none" stroke="#000" stroke-dasharray="3.095"/><line x1="128.5" x2="176" y1="47.001" y2="78" fill="none" stroke="#000" stroke-dasharray="3.095"/><line x1="36.5" x2="64" y1="157.5" y2="177.5" fill="none" stroke="#000" stroke-width="1.5"/><line x1="268.504" x2="241.004" y1="157.5" y2="177.5" fill="none" stroke="#000" stroke-width="1.5"/><line x1="173.004" x2="159" y1="157.5" y2="177.5" fill="none" stroke="#000" stroke-width=".5"/><line x1="130.495" x2="144.499" y1="157.5" y2="177.5" fill="none" stroke="#000" stroke-width=".5"/><line x1="59" x2="112" y1="157" y2="181" fill="none" stroke="#000" stroke-width=".5"/><line x1="242.5" x2="189.5" y1="157" y2="182" fill="none" stroke="#000" stroke-width=".5"/><line x1="109.5" x2="95.475" y1="157.5" y2="178.732" fill="none" stroke="#000" stroke-dasharray="3.095" stroke-width="1.5"/><line x1="196.472" x2="210.497" y1="157.5" y2="178.732" fill="none" stroke="#000" stroke-dasharray="3.095" stroke-width="1.5"/></g></svg>