<svg xmlns="http://www.w3.org/2000/svg" xmlns:xlink="http://www.w3.org/1999/xlink" width="340.9" height="93.6" x="0" y="0" version="1.1" viewBox="0 0 340.9 93.6" style="enable-background:new 0 0 340.9 93.6" xml:space="preserve"><style type="text/css">.st0,.st1{fill:#626366;stroke:#000;stroke-width:.5;stroke-linecap:round;stroke-linejoin:round}.st1{fill:#fff}.st2{fill:none}.st3{font-family:&apos;Helvetica&apos;}.st4{font-size:9px}.st5,.st6{fill:#fff;stroke:#000100;stroke-width:.5;stroke-linecap:round;stroke-linejoin:round}.st6{fill:#000100}</style><g id="objects"><g><g><path d="M340.6,26.9v52.7c0,7.5-13.4,13.6-30,13.6c-16.6,0-30-6.1-30-13.6V26.9H340.6z" class="st0"/><ellipse cx="310.6" cy="26.9" class="st0" rx="30" ry="13.6"/></g><path d="M340.6,26.9v52.7c0,7.5-13.4,13.6-30,13.6c-16.6,0-30-6.1-30-13.6V26.9H340.6z" class="st1"/><ellipse cx="310.6" cy="26.9" class="st1" rx="30" ry="13.6"/></g><rect width="62.9" height="80.2" x="139.9" y="13.2" class="st1"/><rect width="62.9" height="80.2" x=".2" y="13.2" class="st1"/></g><g id="text"><rect width="37" height="11" x="13.6" y="1.3" class="st2"/><text class="st3 st4" transform="matrix(1 0 0 1 21.0693 7.7275)">host1</text><rect width="32" height="11" x="154.1" y="1.3" class="st2"/><text class="st3 st4" transform="matrix(1 0 0 1 154.0776 7.7275)">igroup1</text><rect width="27.5" height="11" x="297.1" y="1.3" class="st2"/><text class="st3 st4" transform="matrix(1 0 0 1 297.0776 7.7275)">LUN1</text><rect width="27.5" height="11" x="257.1" y="36.3" class="st2"/><text class="st3 st4" transform="matrix(1 0 0 1 257.0776 42.7275)">LIF1</text><rect width="27.5" height="11" x="257.1" y="62.8" class="st2"/><text class="st3 st4" transform="matrix(1 0 0 1 257.0776 69.2275)">LIF2</text><rect width="37" height="11" x="152.1" y="34.8" class="st2"/><text class="st3 st4" transform="matrix(1 0 0 1 159.5693 41.2275)">host1</text></g><g id="arrows"><g><line x1="63.1" x2="127.3" y1="39.9" y2="39.9" class="st5"/><polygon points="139.3 39.7 133.7 41.3 128.1 43 128.1 39.7 128.1 36.4 133.7 38" class="st6"/></g><line x1="203.1" x2="243" y1="39.9" y2="39.9" class="st5"/><polygon points="253.8 39.7 248.3 41.3 242.8 43 242.8 39.7 242.8 36.4 248.3 38" class="st6"/></g></svg>