<svg xmlns="http://www.w3.org/2000/svg" xmlns:xlink="http://www.w3.org/1999/xlink" width="352.002" height="300.936" contentScriptType="application/ecmascript" contentStyleType="text/css" enable-background="new 0 0 352.002 300.936" overflow="visible" preserveAspectRatio="xMidYMid meet" version="1.1" viewBox="0 0 352.002 300.936" zoomAndPan="magnify" xml:space="preserve"><g id="outlines"><g><rect width="22.929" height="63.165" x="13.367" y="28.935" fill="none" stroke="#000" stroke-linecap="round" stroke-linejoin="round" stroke-width=".5"/><polyline fill="none" stroke="#000" stroke-linecap="round" stroke-linejoin="round" stroke-width=".5" points="13.367 85.887 9.668 85.887 9.668 92.1 13.367 92.1 36.295 92.1 38.995 92.1 38.995 85.998 36.776 85.998"/><rect width="18.528" height="29.29" x="15.142" y="61.035" fill="none" stroke="#000" stroke-linecap="round" stroke-linejoin="round" stroke-width=".5"/><line x1="13.255" x2="36.221" y1="53.269" y2="53.269" fill="none" stroke="#000" stroke-linecap="round" stroke-linejoin="round" stroke-width=".5"/><rect width="16.087" height="1.664" x="16.806" y="32.633" fill="none" stroke="#000" stroke-linecap="round" stroke-linejoin="round" stroke-width=".5"/><rect width="19.416" height="12.426" x="15.142" y="38.846" fill="none" stroke="#000" stroke-linecap="round" stroke-linejoin="round" stroke-width=".5"/><line x1="15.142" x2="34.557" y1="43.173" y2="43.173" fill="none" stroke="#000" stroke-linecap="round" stroke-linejoin="round" stroke-width=".5"/><line x1="15.142" x2="34.557" y1="46.723" y2="46.723" fill="none" stroke="#000" stroke-linecap="round" stroke-linejoin="round" stroke-width=".5"/></g><g><rect width="22.929" height="63.165" x="109.52" y="28.935" fill="none" stroke="#000" stroke-linecap="round" stroke-linejoin="round" stroke-width=".5"/><polyline fill="none" stroke="#000" stroke-linecap="round" stroke-linejoin="round" stroke-width=".5" points="109.52 85.887 105.822 85.887 105.822 92.1 109.52 92.1 132.449 92.1 135.148 92.1 135.148 85.998 132.93 85.998"/><rect width="18.528" height="29.29" x="111.295" y="61.035" fill="none" stroke="#000" stroke-linecap="round" stroke-linejoin="round" stroke-width=".5"/><line x1="109.409" x2="132.375" y1="53.269" y2="53.269" fill="none" stroke="#000" stroke-linecap="round" stroke-linejoin="round" stroke-width=".5"/><rect width="16.087" height="1.664" x="112.959" y="32.633" fill="none" stroke="#000" stroke-linecap="round" stroke-linejoin="round" stroke-width=".5"/><rect width="19.416" height="12.426" x="111.295" y="38.846" fill="none" stroke="#000" stroke-linecap="round" stroke-linejoin="round" stroke-width=".5"/><line x1="111.295" x2="130.71" y1="43.173" y2="43.173" fill="none" stroke="#000" stroke-linecap="round" stroke-linejoin="round" stroke-width=".5"/><line x1="111.295" x2="130.71" y1="46.723" y2="46.723" fill="none" stroke="#000" stroke-linecap="round" stroke-linejoin="round" stroke-width=".5"/></g><g><rect width="22.93" height="63.165" x="247.388" y="28.935" fill="none" stroke="#000" stroke-linecap="round" stroke-linejoin="round" stroke-width=".5"/><polyline fill="none" stroke="#000" stroke-linecap="round" stroke-linejoin="round" stroke-width=".5" points="247.388 85.887 243.69 85.887 243.69 92.1 247.388 92.1 270.317 92.1 273.017 92.1 273.017 85.998 270.798 85.998"/><rect width="18.528" height="29.29" x="249.163" y="61.035" fill="none" stroke="#000" stroke-linecap="round" stroke-linejoin="round" stroke-width=".5"/><line x1="247.277" x2="270.243" y1="53.269" y2="53.269" fill="none" stroke="#000" stroke-linecap="round" stroke-linejoin="round" stroke-width=".5"/><rect width="16.088" height="1.664" x="250.827" y="32.633" fill="none" stroke="#000" stroke-linecap="round" stroke-linejoin="round" stroke-width=".5"/><rect width="19.416" height="12.426" x="249.163" y="38.846" fill="none" stroke="#000" stroke-linecap="round" stroke-linejoin="round" stroke-width=".5"/><line x1="249.163" x2="268.579" y1="43.173" y2="43.173" fill="none" stroke="#000" stroke-linecap="round" stroke-linejoin="round" stroke-width=".5"/><line x1="249.163" x2="268.579" y1="46.723" y2="46.723" fill="none" stroke="#000" stroke-linecap="round" stroke-linejoin="round" stroke-width=".5"/></g><polyline fill="none" stroke="#000" stroke-linecap="round" stroke-linejoin="round" stroke-width=".5" points="320.244 68.358 320.243 56.598 301.383 51.716 333.557 48.388 351.752 53.269 351.752 65.029 320.243 68.358 301.383 63.698 301.235 52.012"/><line x1="351.679" x2="320.243" y1="53.417" y2="56.598" fill="none" stroke="#000" stroke-linecap="round" stroke-linejoin="round" stroke-width=".5"/><rect width="69.23" height="20.71" x="41.028" y="139.289" fill="none" stroke="#000" stroke-linecap="round" stroke-linejoin="round" stroke-width=".5"/><rect width="69.23" height="20.71" x="204.341" y="139.289" fill="none" stroke="#000" stroke-linecap="round" stroke-linejoin="round" stroke-width=".5"/><path fill="none" stroke="#000" stroke-dasharray="3 3" stroke-linecap="round" stroke-linejoin="round" stroke-width=".5" d="M117.951,269.88c0,4.412-3.577,7.988-7.988,7.988H35.407c-4.412,0-7.988-3.576-7.988-7.988V197.1c0-4.412,3.576-7.988,7.988-7.988 h74.556c4.412,0,7.988,3.576,7.988,7.988V269.88z"/><path fill="none" stroke="#000" stroke-dasharray="3 3" stroke-linecap="round" stroke-linejoin="round" stroke-width=".5" d="M284.813,269.88c0,4.412-3.576,7.988-7.988,7.988H202.27c-4.412,0-7.988-3.576-7.988-7.988V197.1c0-4.412,3.576-7.988,7.988-7.988 h74.556c4.412,0,7.988,3.576,7.988,7.988V269.88z"/><rect width="57.988" height="32.544" x="42.211" y="233.489" fill="none" stroke="#000" stroke-linecap="round" stroke-linejoin="round" stroke-width=".5"/><rect width="11.835" height="42.012" x="202.27" y="229.938" fill="none" stroke="#000" stroke-linecap="round" stroke-linejoin="round" stroke-width=".5"/><rect width="11.836" height="42.012" x="218.245" y="229.938" fill="none" stroke="#000" stroke-linecap="round" stroke-linejoin="round" stroke-width=".5"/><rect width="11.835" height="42.012" x="234.222" y="229.938" fill="none" stroke="#000" stroke-linecap="round" stroke-linejoin="round" stroke-width=".5"/><rect width="11.835" height="42.012" x="250.198" y="229.938" fill="none" stroke="#000" stroke-linecap="round" stroke-linejoin="round" stroke-width=".5"/><rect width="11.834" height="42.012" x="266.175" y="229.938" fill="none" stroke="#000" stroke-linecap="round" stroke-linejoin="round" stroke-width=".5"/><line x1="50.085" x2="50.085" y1="188.852" y2="160.102" fill="none" stroke="#000" stroke-linecap="round" stroke-linejoin="round" stroke-width=".5"/><line x1="265.085" x2="265.085" y1="188.852" y2="160.102" fill="none" stroke="#000" stroke-linecap="round" stroke-linejoin="round" stroke-width=".5"/><g><polyline fill="none" stroke="#FFF" stroke-linecap="round" stroke-linejoin="round" stroke-width="3" points="99.085 162.102 99.085 179.465 231.585 179.465 231.585 188.852"/></g><g><polyline fill="none" stroke="#000" stroke-linecap="round" stroke-linejoin="round" stroke-width=".5" points="99.085 160.102 99.085 178.764 231.585 178.764 231.585 188.852"/></g><g><polyline fill="none" stroke="#FFF" stroke-linecap="round" stroke-linejoin="round" stroke-width="3" points="82.835 188.852 82.835 169.265 214.585 169.265 214.585 162.102"/></g><polyline fill="none" stroke="#000" stroke-linecap="round" stroke-linejoin="round" stroke-width=".5" points="82.835 188.852 82.835 169.433 214.585 169.433 214.585 160.852"/><line x1="117.835" x2="194.085" y1="231.352" y2="231.352" fill="none" stroke="#000" stroke-linecap="round" stroke-linejoin="round" stroke-width=".5"/><line x1="117.835" x2="194.085" y1="221.352" y2="221.352" fill="none" stroke="#000" stroke-linecap="round" stroke-linejoin="round" stroke-width=".5"/><line x1="301.335" x2="270.335" y1="58.102" y2="58.102" fill="none" stroke="#000" stroke-linecap="round" stroke-linejoin="round" stroke-width=".5"/><polyline fill="none" stroke="#FFF" stroke-linecap="round" stroke-linejoin="round" stroke-width="3" points="113.085 149.852 164.085 149.852 164.085 101.102 252.085 101.102 252.085 94.352"/><line x1="262.835" x2="262.835" y1="92.352" y2="139.102" fill="none" stroke="#000" stroke-linecap="round" stroke-linejoin="round" stroke-width=".5"/><polyline fill="none" stroke="#000" stroke-linecap="round" stroke-linejoin="round" stroke-width=".5" points="18.085 92.602 18.085 131.852 53.585 131.852 53.585 138.852"/><polyline fill="none" stroke="#000" stroke-linecap="round" stroke-linejoin="round" stroke-width=".5" points="29.335 92.102 29.335 124.602 214.335 124.602 214.335 138.852"/><g><polyline fill="none" stroke="#FFF" stroke-linecap="round" stroke-linejoin="round" stroke-width="3" points="114.335 93.852 114.335 116.352 97.335 116.352 97.335 136.852"/></g><g><polyline fill="none" stroke="#000" stroke-linecap="round" stroke-linejoin="round" stroke-width=".5" points="114.335 92.602 114.335 116.352 97.335 116.352 97.335 138.852"/></g><polyline fill="none" stroke="#FFF" stroke-linecap="round" stroke-linejoin="round" stroke-width="3" points="126.835 94.352 126.835 116.352 233.835 116.352 233.835 136.852"/><polyline fill="none" stroke="#000" stroke-linecap="round" stroke-linejoin="round" stroke-width=".5" points="126.835 92.602 126.835 116.352 233.835 116.352 233.835 139.352"/><line x1="253.585" x2="253.585" y1="100.102" y2="94.352" fill="none" stroke="#000" stroke-linecap="round" stroke-linejoin="round" stroke-width=".5"/><polyline fill="none" stroke="#FFF" stroke-linecap="round" stroke-linejoin="round" stroke-width="3" points="112.335 149.602 160.585 149.602 160.585 100.102 253.585 100.102 253.585 94.352"/><polyline fill="none" stroke="#000" stroke-linecap="round" stroke-linejoin="round" stroke-width=".5" points="110.835 149.602 160.585 149.602 160.585 100.102 253.585 100.102 253.585 92.602"/><line x1="36.335" x2="109.335" y1="56.268" y2="56.268" fill="none" stroke="#000" stroke-linecap="round" stroke-linejoin="round" stroke-width=".5"/><line x1="36.168" x2="109.168" y1="47.268" y2="47.268" fill="none" stroke="#000" stroke-linecap="round" stroke-linejoin="round" stroke-width=".5"/></g><g id="text"><rect width="51.333" height="19.333" y="1.269" fill="none"/><text transform="matrix(1 0 0 1 3.6577 7.731)"><tspan x="0" y="0" font-family="'Helvetica'" font-size="9">Application </tspan><tspan x="9.751" y="10.8" font-family="'Helvetica'" font-size="9">host 1</tspan></text><rect width="51.333" height="19.333" x="95.333" y="1.269" fill="none"/><text transform="matrix(1 0 0 1 98.9912 7.731)"><tspan x="0" y="0" font-family="'Helvetica'" font-size="9">Application </tspan><tspan x="9.751" y="10.8" font-family="'Helvetica'" font-size="9">host 2</tspan></text><rect width="49.334" height="19.333" x="232.667" y="1.269" fill="none"/><text transform="matrix(1 0 0 1 242.3271 7.731)"><tspan x="0" y="0" font-family="'Helvetica'" font-size="9">Backup </tspan><tspan x="6.502" y="10.8" font-family="'Helvetica'" font-size="9">host</tspan></text><rect width="48" height="12" x="300" y="29.936" fill="none"/><text font-family="'Helvetica'" font-size="9" transform="matrix(1 0 0 1 300.2451 36.3975)">Tape library</text><rect width="56.667" height="20.667" x="45.333" y="61.936" fill="none"/><text transform="matrix(1 0 0 1 51.6572 68.3975)"><tspan x="0" y="0" font-family="'Helvetica'" font-size="9">Application </tspan><tspan x="8.757" y="10.8" font-family="'Helvetica'" font-size="9">cluster</tspan></text><rect width="56" height="8.667" x="46.667" y="146.602" fill="none"/><text font-family="'Helvetica'" font-size="9" transform="matrix(1 0 0 1 54.916 153.064)">FC switch</text><rect width="56" height="8.667" x="210" y="146.602" fill="none"/><text font-family="'Helvetica'" font-size="9" transform="matrix(1 0 0 1 218.249 153.064)">FC switch</text><rect width="60" height="16.667" x="126" y="235.269" fill="none"/><text font-family="'Helvetica'" font-size="9" transform="matrix(1 0 0 1 141.7485 241.7305)">Cluster</text><rect width="78.667" height="13.333" x="32.333" y="287.603" fill="none"/><text font-family="'Helvetica'" font-size="9" transform="matrix(1 0 0 1 36.6523 294.0645)">Storage system 1</text><rect width="78.668" height="13.333" x="203.999" y="287.603" fill="none"/><text font-family="'Helvetica'" font-size="9" transform="matrix(1 0 0 1 207.0674 294.0645)">Storage system 2</text><rect width="61.333" height="12" x="39.333" y="210.269" fill="none"/><text font-family="'Helvetica'" font-size="9" transform="matrix(1 0 0 1 47.2437 216.7305)">Single LUN</text><rect width="69.334" height="10.667" x="208.666" y="210.603" fill="none"/><text font-family="'Helvetica'" font-size="9" transform="matrix(1 0 0 1 215.3301 217.0645)">Multiple LUNs</text></g></svg>