<svg xmlns="http://www.w3.org/2000/svg" xmlns:svg="http://www.w3.org/2000/svg" id="Layer_1" width="284.5" height="234" x="0" y="0" contentScriptType="application/ecmascript" contentStyleType="text/css" enable-background="new 0 0 284.5 234" preserveAspectRatio="xMidYMid meet" version="1.1" viewBox="0 0 284.5 234" zoomAndPan="magnify" xml:space="preserve"><polygon id="polygon2" fill="#D1D3D4" stroke="#000" points="280.904 159.488 2.591 159.515 2.591 2.906 280.904 2.878"/><path id="path4" fill="#FFF" stroke="#000" d="M262.216,100.816c0,5.965-4.836,10.801-10.8,10.801H32.654 c-5.964,0-10.799-4.836-10.799-10.801V33.511c0-5.964,4.835-10.799,10.799-10.799h218.763c5.964,0,10.8,4.835,10.8,10.799V100.816z"/><path id="path6" fill="none" stroke="#A7A9AC" stroke-dasharray="6" stroke-width="2" d="M126.572,89.263c0,5.965-4.834,10.801-10.799,10.801 H44.282c-5.964,0-10.8-4.836-10.8-10.801V56.292c0-5.964,4.836-10.799,10.8-10.799h71.491c5.965,0,10.799,4.835,10.799,10.799 V89.263z"/><text id="text8" x="100.535" y="16.285" font-family="Helvetica" font-size="9">Local tier (aggregate)</text><text id="text10" font-family="'Helvetica'" font-size="9" transform="matrix(1 0 0 1 52.832 39.8638)">Plex0 (pool0)</text><text id="text12" font-family="'Helvetica'" font-size="9" transform="matrix(1 0 0 1 179.9707 39.8638)">Plex1 (pool1)</text><text id="text14" font-family="'Helvetica'" font-size="9" transform="matrix(1 0 0 1 49.3965 126.8481)">pool0</text><g id="g70"><g id="g32"><circle id="circle16" cx="51.421" cy="133.617" r="3.775" fill="#FFF"/><circle id="circle18" cx="60.231" cy="133.617" r="3.775" fill="#FFF"/><circle id="circle20" cx="69.041" cy="133.617" r="3.774" fill="#FFF"/><circle id="circle22" cx="77.85" cy="133.617" r="3.775" fill="#FFF"/><circle id="circle24" cx="86.66" cy="133.617" r="3.774" fill="#FFF"/><circle id="circle26" cx="95.469" cy="133.617" r="3.775" fill="#FFF"/><circle id="circle28" cx="104.279" cy="133.617" r="3.774" fill="#FFF"/><circle id="circle30" cx="113.088" cy="133.617" r="3.775" fill="#FFF"/></g><g id="g50"><circle id="circle34" cx="51.421" cy="133.617" r="3.775" fill="#FFF"/><circle id="circle36" cx="60.231" cy="133.617" r="3.775" fill="#FFF"/><circle id="circle38" cx="69.041" cy="133.617" r="3.774" fill="#FFF"/><circle id="circle40" cx="77.85" cy="133.617" r="3.775" fill="#FFF"/><circle id="circle42" cx="86.66" cy="133.617" r="3.774" fill="#FFF"/><circle id="circle44" cx="95.469" cy="133.617" r="3.775" fill="#FFF"/><circle id="circle46" cx="104.279" cy="133.617" r="3.774" fill="#FFF"/><circle id="circle48" cx="113.088" cy="133.617" r="3.775" fill="#FFF"/></g><g id="g68"><circle id="circle52" cx="51.421" cy="133.617" r="3.775" fill="none" stroke="#000" stroke-width=".5"/><circle id="circle54" cx="60.231" cy="133.617" r="3.775" fill="none" stroke="#000" stroke-width=".5"/><circle id="circle56" cx="69.041" cy="133.617" r="3.774" fill="none" stroke="#000" stroke-width=".5"/><circle id="circle58" cx="77.85" cy="133.617" r="3.775" fill="none" stroke="#000" stroke-width=".5"/><circle id="circle60" cx="86.66" cy="133.617" r="3.774" fill="none" stroke="#000" stroke-width=".5"/><circle id="circle62" cx="95.469" cy="133.617" r="3.775" fill="none" stroke="#000" stroke-width=".5"/><circle id="circle64" cx="104.279" cy="133.617" r="3.774" fill="none" stroke="#000" stroke-width=".5"/><circle id="circle66" cx="113.088" cy="133.617" r="3.775" fill="none" stroke="#000" stroke-width=".5"/></g></g><g id="g126"><g id="g88"><circle id="circle72" cx="51.421" cy="142.687" r="3.775" fill="#FFF"/><circle id="circle74" cx="60.231" cy="142.687" r="3.775" fill="#FFF"/><circle id="circle76" cx="69.041" cy="142.687" r="3.774" fill="#FFF"/><circle id="circle78" cx="77.85" cy="142.687" r="3.775" fill="#FFF"/><circle id="circle80" cx="86.66" cy="142.687" r="3.774" fill="#FFF"/><circle id="circle82" cx="95.469" cy="142.687" r="3.775" fill="#FFF"/><circle id="circle84" cx="104.279" cy="142.687" r="3.774" fill="#FFF"/><circle id="circle86" cx="113.088" cy="142.687" r="3.775" fill="#FFF"/></g><g id="g106"><circle id="circle90" cx="51.421" cy="142.687" r="3.775" fill="#FFF"/><circle id="circle92" cx="60.231" cy="142.687" r="3.775" fill="#FFF"/><circle id="circle94" cx="69.041" cy="142.687" r="3.774" fill="#FFF"/><circle id="circle96" cx="77.85" cy="142.687" r="3.775" fill="#FFF"/><circle id="circle98" cx="86.66" cy="142.687" r="3.774" fill="#FFF"/><circle id="circle100" cx="95.469" cy="142.687" r="3.775" fill="#FFF"/><circle id="circle102" cx="104.279" cy="142.687" r="3.774" fill="#FFF"/><circle id="circle104" cx="113.088" cy="142.687" r="3.775" fill="#FFF"/></g><g id="g124"><circle id="circle108" cx="51.421" cy="142.687" r="3.775" fill="none" stroke="#000" stroke-width=".5"/><circle id="circle110" cx="60.231" cy="142.687" r="3.775" fill="none" stroke="#000" stroke-width=".5"/><circle id="circle112" cx="69.041" cy="142.687" r="3.774" fill="none" stroke="#000" stroke-width=".5"/><circle id="circle114" cx="77.85" cy="142.687" r="3.775" fill="none" stroke="#000" stroke-width=".5"/><circle id="circle116" cx="86.66" cy="142.687" r="3.774" fill="none" stroke="#000" stroke-width=".5"/><circle id="circle118" cx="95.469" cy="142.687" r="3.775" fill="none" stroke="#000" stroke-width=".5"/><circle id="circle120" cx="104.279" cy="142.687" r="3.774" fill="none" stroke="#000" stroke-width=".5"/><circle id="circle122" cx="113.088" cy="142.687" r="3.775" fill="none" stroke="#000" stroke-width=".5"/></g></g><text id="text128" font-family="'Helvetica'" font-size="9" transform="matrix(1 0 0 1 172.0601 126.8481)">pool1</text><g id="g184"><g id="g146"><circle id="circle130" cx="174.084" cy="133.617" r="3.775" fill="#FFF"/><circle id="circle132" cx="182.894" cy="133.617" r="3.775" fill="#FFF"/><circle id="circle134" cx="191.704" cy="133.617" r="3.774" fill="#FFF"/><circle id="circle136" cx="200.513" cy="133.617" r="3.775" fill="#FFF"/><circle id="circle138" cx="209.323" cy="133.617" r="3.774" fill="#FFF"/><circle id="circle140" cx="218.132" cy="133.617" r="3.775" fill="#FFF"/><circle id="circle142" cx="226.942" cy="133.617" r="3.774" fill="#FFF"/><circle id="circle144" cx="235.751" cy="133.617" r="3.775" fill="#FFF"/></g><g id="g164"><circle id="circle148" cx="174.084" cy="133.617" r="3.775" fill="#FFF"/><circle id="circle150" cx="182.894" cy="133.617" r="3.775" fill="#FFF"/><circle id="circle152" cx="191.704" cy="133.617" r="3.774" fill="#FFF"/><circle id="circle154" cx="200.513" cy="133.617" r="3.775" fill="#FFF"/><circle id="circle156" cx="209.323" cy="133.617" r="3.774" fill="#FFF"/><circle id="circle158" cx="218.132" cy="133.617" r="3.775" fill="#FFF"/><circle id="circle160" cx="226.942" cy="133.617" r="3.774" fill="#FFF"/><circle id="circle162" cx="235.751" cy="133.617" r="3.775" fill="#FFF"/></g><g id="g182"><circle id="circle166" cx="174.084" cy="133.617" r="3.775" fill="none" stroke="#000" stroke-width=".5"/><circle id="circle168" cx="182.894" cy="133.617" r="3.775" fill="none" stroke="#000" stroke-width=".5"/><circle id="circle170" cx="191.704" cy="133.617" r="3.774" fill="none" stroke="#000" stroke-width=".5"/><circle id="circle172" cx="200.513" cy="133.617" r="3.775" fill="none" stroke="#000" stroke-width=".5"/><circle id="circle174" cx="209.323" cy="133.617" r="3.774" fill="none" stroke="#000" stroke-width=".5"/><circle id="circle176" cx="218.132" cy="133.617" r="3.775" fill="none" stroke="#000" stroke-width=".5"/><circle id="circle178" cx="226.942" cy="133.617" r="3.774" fill="none" stroke="#000" stroke-width=".5"/><circle id="circle180" cx="235.751" cy="133.617" r="3.775" fill="none" stroke="#000" stroke-width=".5"/></g></g><g id="g240"><g id="g202"><circle id="circle186" cx="174.084" cy="142.687" r="3.775" fill="#FFF"/><circle id="circle188" cx="182.894" cy="142.687" r="3.775" fill="#FFF"/><circle id="circle190" cx="191.704" cy="142.687" r="3.774" fill="#FFF"/><circle id="circle192" cx="200.513" cy="142.687" r="3.775" fill="#FFF"/><circle id="circle194" cx="209.323" cy="142.687" r="3.774" fill="#FFF"/><circle id="circle196" cx="218.132" cy="142.687" r="3.775" fill="#FFF"/><circle id="circle198" cx="226.942" cy="142.687" r="3.774" fill="#FFF"/><circle id="circle200" cx="235.751" cy="142.687" r="3.775" fill="#FFF"/></g><g id="g220"><circle id="circle204" cx="174.084" cy="142.687" r="3.775" fill="#FFF"/><circle id="circle206" cx="182.894" cy="142.687" r="3.775" fill="#FFF"/><circle id="circle208" cx="191.704" cy="142.687" r="3.774" fill="#FFF"/><circle id="circle210" cx="200.513" cy="142.687" r="3.775" fill="#FFF"/><circle id="circle212" cx="209.323" cy="142.687" r="3.774" fill="#FFF"/><circle id="circle214" cx="218.132" cy="142.687" r="3.775" fill="#FFF"/><circle id="circle216" cx="226.942" cy="142.687" r="3.774" fill="#FFF"/><circle id="circle218" cx="235.751" cy="142.687" r="3.775" fill="#FFF"/></g><g id="g238"><circle id="circle222" cx="174.084" cy="142.687" r="3.775" fill="none" stroke="#000" stroke-width=".5"/><circle id="circle224" cx="182.894" cy="142.687" r="3.775" fill="none" stroke="#000" stroke-width=".5"/><circle id="circle226" cx="191.704" cy="142.687" r="3.774" fill="none" stroke="#000" stroke-width=".5"/><circle id="circle228" cx="200.513" cy="142.687" r="3.775" fill="none" stroke="#000" stroke-width=".5"/><circle id="circle230" cx="209.323" cy="142.687" r="3.774" fill="none" stroke="#000" stroke-width=".5"/><circle id="circle232" cx="218.132" cy="142.687" r="3.775" fill="none" stroke="#000" stroke-width=".5"/><circle id="circle234" cx="226.942" cy="142.687" r="3.774" fill="none" stroke="#000" stroke-width=".5"/><circle id="circle236" cx="235.751" cy="142.687" r="3.775" fill="none" stroke="#000" stroke-width=".5"/></g></g><circle id="circle242" cx="49.244" cy="57.706" r="3.775" fill="#999" stroke="#000" stroke-width=".5"/><circle id="circle244" cx="58.054" cy="57.706" r="3.775" fill="#999" stroke="#000" stroke-width=".5"/><circle id="circle246" cx="66.864" cy="57.706" r="3.774" fill="#999" stroke="#000" stroke-width=".5"/><circle id="circle248" cx="75.673" cy="57.706" r="3.775" fill="#999" stroke="#000" stroke-width=".5"/><circle id="circle250" cx="84.483" cy="57.706" r="3.774" fill="#999" stroke="#000" stroke-width=".5"/><circle id="circle252" cx="93.292" cy="57.706" r="3.775" fill="#999" stroke="#000" stroke-width=".5"/><circle id="circle254" cx="112.178" cy="57.706" r="3.774" fill="none" stroke="#000" stroke-width=".5"/><circle id="circle256" cx="112.178" cy="57.705" r="2.265" fill="none" stroke="#000" stroke-width=".5"/><circle id="circle258" cx="112.177" cy="57.705" r=".943" stroke="#000" stroke-width=".5"/><circle id="circle260" cx="102.849" cy="57.706" r="3.775" stroke="#000" stroke-width=".5"/><circle id="circle262" cx="49.244" cy="68.194" r="3.775" fill="#999" stroke="#000" stroke-width=".5"/><circle id="circle264" cx="58.054" cy="68.194" r="3.775" fill="#999" stroke="#000" stroke-width=".5"/><circle id="circle266" cx="66.864" cy="68.194" r="3.774" fill="#999" stroke="#000" stroke-width=".5"/><circle id="circle268" cx="75.673" cy="68.194" r="3.775" fill="#999" stroke="#000" stroke-width=".5"/><circle id="circle270" cx="84.483" cy="68.194" r="3.774" fill="#999" stroke="#000" stroke-width=".5"/><circle id="circle272" cx="93.292" cy="68.194" r="3.775" fill="#999" stroke="#000" stroke-width=".5"/><circle id="circle274" cx="112.178" cy="68.194" r="3.774" fill="none" stroke="#000" stroke-width=".5"/><circle id="circle276" cx="112.177" cy="68.193" r=".943" stroke="#000" stroke-width=".5"/><circle id="circle278" cx="112.178" cy="68.193" r="2.265" fill="none" stroke="#000" stroke-width=".5"/><circle id="circle280" cx="102.849" cy="68.194" r="3.775" stroke="#000" stroke-width=".5"/><circle id="circle282" cx="49.244" cy="78.682" r="3.775" fill="#999" stroke="#000" stroke-width=".5"/><circle id="circle284" cx="58.054" cy="78.682" r="3.775" fill="#999" stroke="#000" stroke-width=".5"/><circle id="circle286" cx="66.864" cy="78.682" r="3.774" fill="#999" stroke="#000" stroke-width=".5"/><circle id="circle288" cx="75.673" cy="78.682" r="3.775" fill="#999" stroke="#000" stroke-width=".5"/><circle id="circle290" cx="84.483" cy="78.682" r="3.774" fill="#999" stroke="#000" stroke-width=".5"/><circle id="circle292" cx="93.292" cy="78.682" r="3.775" fill="#999" stroke="#000" stroke-width=".5"/><circle id="circle294" cx="112.178" cy="78.682" r="3.774" fill="none" stroke="#000" stroke-width=".5"/><circle id="circle296" cx="112.177" cy="78.681" r=".943" stroke="#000" stroke-width=".5"/><circle id="circle298" cx="112.178" cy="78.681" r="2.265" fill="none" stroke="#000" stroke-width=".5"/><circle id="circle300" cx="102.849" cy="78.682" r="3.775" stroke="#000" stroke-width=".5"/><circle id="circle302" cx="49.244" cy="88.76" r="3.775" fill="#999" stroke="#000" stroke-width=".5"/><circle id="circle304" cx="58.054" cy="88.76" r="3.775" fill="#999" stroke="#000" stroke-width=".5"/><circle id="circle306" cx="66.864" cy="88.76" r="3.774" fill="#999" stroke="#000" stroke-width=".5"/><circle id="circle308" cx="75.673" cy="88.76" r="3.775" fill="#999" stroke="#000" stroke-width=".5"/><circle id="circle310" cx="84.483" cy="88.76" r="3.774" fill="#999" stroke="#000" stroke-width=".5"/><circle id="circle312" cx="93.292" cy="88.76" r="3.775" fill="#999" stroke="#000" stroke-width=".5"/><circle id="circle314" cx="112.178" cy="88.76" r="3.774" fill="none" stroke="#000" stroke-width=".5"/><circle id="circle316" cx="112.177" cy="88.759" r=".943" stroke="#000" stroke-width=".5"/><circle id="circle318" cx="112.178" cy="88.759" r="2.265" fill="none" stroke="#000" stroke-width=".5"/><circle id="circle320" cx="102.849" cy="88.76" r="3.775" stroke="#000" stroke-width=".5"/><text id="text330" transform="matrix(1 0 0 1 7.4082 59.9946)"><tspan id="tspan322" x="0" y="0" font-family="'Helvetica'" font-size="9">rg0 </tspan><tspan id="tspan324" x="0" y="11" font-family="'Helvetica'" font-size="9">rg1 </tspan><tspan id="tspan326" x="0" y="22" font-family="'Helvetica'" font-size="9">rg2 </tspan><tspan id="tspan328" x="0" y="33" font-family="'Helvetica'" font-size="9">rg3</tspan></text><g id="g336"><line id="line332" x1="24.357" x2="42.046" y1="57.632" y2="57.632" fill="none" stroke="#FFF" stroke-linecap="round" stroke-linejoin="round" stroke-width="3"/><line id="line334" x1="24.357" x2="42.046" y1="57.632" y2="57.632" fill="none" stroke="#000" stroke-linecap="round" stroke-linejoin="round" stroke-width=".5"/></g><g id="g342"><line id="line338" x1="24.201" x2="42.046" y1="68.632" y2="68.632" fill="none" stroke="#FFF" stroke-linecap="round" stroke-linejoin="round" stroke-width="3"/><line id="line340" x1="24.201" x2="42.046" y1="68.632" y2="68.632" fill="none" stroke="#000" stroke-linecap="round" stroke-linejoin="round" stroke-width=".5"/></g><g id="g348"><line id="line344" x1="24.451" x2="42.046" y1="79.632" y2="79.632" fill="none" stroke="#FFF" stroke-linecap="round" stroke-linejoin="round" stroke-width="3"/><line id="line346" x1="24.451" x2="42.046" y1="79.632" y2="79.632" fill="none" stroke="#000" stroke-linecap="round" stroke-linejoin="round" stroke-width=".5"/></g><g id="g354"><line id="line350" x1="24.201" x2="42.046" y1="89.625" y2="89.625" fill="none" stroke="#FFF" stroke-linecap="round" stroke-linejoin="round" stroke-width="3"/><line id="line352" x1="24.201" x2="42.046" y1="89.625" y2="89.625" fill="none" stroke="#000" stroke-linecap="round" stroke-linejoin="round" stroke-width=".5"/></g><path id="path356" fill="none" stroke="#A7A9AC" stroke-dasharray="6" stroke-width="2" d="M251.412,89.263c0,5.965-4.834,10.801-10.799,10.801 h-71.491c-5.964,0-10.8-4.836-10.8-10.801V56.292c0-5.964,4.836-10.799,10.8-10.799h71.491c5.965,0,10.799,4.835,10.799,10.799 V89.263z"/><circle id="circle358" cx="174.084" cy="57.706" r="3.775" fill="#999" stroke="#000" stroke-width=".5"/><circle id="circle360" cx="182.894" cy="57.706" r="3.775" fill="#999" stroke="#000" stroke-width=".5"/><circle id="circle362" cx="191.704" cy="57.706" r="3.774" fill="#999" stroke="#000" stroke-width=".5"/><circle id="circle364" cx="200.513" cy="57.706" r="3.775" fill="#999" stroke="#000" stroke-width=".5"/><circle id="circle366" cx="209.323" cy="57.706" r="3.774" fill="#999" stroke="#000" stroke-width=".5"/><circle id="circle368" cx="218.132" cy="57.706" r="3.775" fill="#999" stroke="#000" stroke-width=".5"/><circle id="circle370" cx="237.018" cy="57.706" r="3.774" fill="none" stroke="#000" stroke-width=".5"/><circle id="circle372" cx="237.018" cy="57.705" r="2.265" fill="none" stroke="#000" stroke-width=".5"/><circle id="circle374" cx="237.017" cy="57.705" r=".943" stroke="#000" stroke-width=".5"/><circle id="circle376" cx="227.689" cy="57.706" r="3.775" stroke="#000" stroke-width=".5"/><circle id="circle378" cx="174.084" cy="68.194" r="3.775" fill="#999" stroke="#000" stroke-width=".5"/><circle id="circle380" cx="182.894" cy="68.194" r="3.775" fill="#999" stroke="#000" stroke-width=".5"/><circle id="circle382" cx="191.704" cy="68.194" r="3.774" fill="#999" stroke="#000" stroke-width=".5"/><circle id="circle384" cx="200.513" cy="68.194" r="3.775" fill="#999" stroke="#000" stroke-width=".5"/><circle id="circle386" cx="209.323" cy="68.194" r="3.774" fill="#999" stroke="#000" stroke-width=".5"/><circle id="circle388" cx="218.132" cy="68.194" r="3.775" fill="#999" stroke="#000" stroke-width=".5"/><circle id="circle390" cx="237.018" cy="68.194" r="3.774" fill="none" stroke="#000" stroke-width=".5"/><circle id="circle392" cx="237.017" cy="68.193" r=".943" stroke="#000" stroke-width=".5"/><circle id="circle394" cx="237.018" cy="68.193" r="2.265" fill="none" stroke="#000" stroke-width=".5"/><circle id="circle396" cx="227.689" cy="68.194" r="3.775" stroke="#000" stroke-width=".5"/><circle id="circle398" cx="174.084" cy="78.682" r="3.775" fill="#999" stroke="#000" stroke-width=".5"/><circle id="circle400" cx="182.894" cy="78.682" r="3.775" fill="#999" stroke="#000" stroke-width=".5"/><circle id="circle402" cx="191.704" cy="78.682" r="3.774" fill="#999" stroke="#000" stroke-width=".5"/><circle id="circle404" cx="200.513" cy="78.682" r="3.775" fill="#999" stroke="#000" stroke-width=".5"/><circle id="circle406" cx="209.323" cy="78.682" r="3.774" fill="#999" stroke="#000" stroke-width=".5"/><circle id="circle408" cx="218.132" cy="78.682" r="3.775" fill="#999" stroke="#000" stroke-width=".5"/><circle id="circle410" cx="237.018" cy="78.682" r="3.774" fill="none" stroke="#000" stroke-width=".5"/><circle id="circle412" cx="237.017" cy="78.681" r=".943" stroke="#000" stroke-width=".5"/><circle id="circle414" cx="237.018" cy="78.681" r="2.265" fill="none" stroke="#000" stroke-width=".5"/><circle id="circle416" cx="227.689" cy="78.682" r="3.775" stroke="#000" stroke-width=".5"/><circle id="circle418" cx="174.084" cy="88.76" r="3.775" fill="#999" stroke="#000" stroke-width=".5"/><circle id="circle420" cx="182.894" cy="88.76" r="3.775" fill="#999" stroke="#000" stroke-width=".5"/><circle id="circle422" cx="191.704" cy="88.76" r="3.774" fill="#999" stroke="#000" stroke-width=".5"/><circle id="circle424" cx="200.513" cy="88.76" r="3.775" fill="#999" stroke="#000" stroke-width=".5"/><circle id="circle426" cx="209.323" cy="88.76" r="3.774" fill="#999" stroke="#000" stroke-width=".5"/><circle id="circle428" cx="218.132" cy="88.76" r="3.775" fill="#999" stroke="#000" stroke-width=".5"/><circle id="circle430" cx="237.018" cy="88.76" r="3.774" fill="none" stroke="#000" stroke-width=".5"/><circle id="circle432" cx="237.017" cy="88.759" r=".943" stroke="#000" stroke-width=".5"/><circle id="circle434" cx="237.018" cy="88.759" r="2.265" fill="none" stroke="#000" stroke-width=".5"/><circle id="circle436" cx="227.689" cy="88.76" r="3.775" stroke="#000" stroke-width=".5"/><text id="text446" transform="matrix(1 0 0 1 137.3286 60.1196)"><tspan id="tspan438" x="0" y="0" font-family="'Helvetica'" font-size="9">rg0 </tspan><tspan id="tspan440" x="0" y="11" font-family="'Helvetica'" font-size="9">rg1 </tspan><tspan id="tspan442" x="0" y="22" font-family="'Helvetica'" font-size="9">rg2 </tspan><tspan id="tspan444" x="0" y="33" font-family="'Helvetica'" font-size="9">rg3</tspan></text><g id="g452"><line id="line448" x1="152.205" x2="166.886" y1="57.632" y2="57.632" fill="none" stroke="#FFF" stroke-linecap="round" stroke-linejoin="round" stroke-width="3"/><line id="line450" x1="152.205" x2="166.886" y1="57.632" y2="57.632" fill="none" stroke="#000" stroke-linecap="round" stroke-linejoin="round" stroke-width=".5"/></g><g id="g458"><line id="line454" x1="152.205" x2="166.886" y1="68.632" y2="68.632" fill="none" stroke="#FFF" stroke-linecap="round" stroke-linejoin="round" stroke-width="3"/><line id="line456" x1="152.205" x2="166.886" y1="68.632" y2="68.632" fill="none" stroke="#000" stroke-linecap="round" stroke-linejoin="round" stroke-width=".5"/></g><g id="g464"><line id="line460" x1="152.205" x2="166.886" y1="79.632" y2="79.632" fill="none" stroke="#FFF" stroke-linecap="round" stroke-linejoin="round" stroke-width="3"/><line id="line462" x1="152.205" x2="166.886" y1="79.632" y2="79.632" fill="none" stroke="#000" stroke-linecap="round" stroke-linejoin="round" stroke-width=".5"/></g><g id="g470"><line id="line466" x1="152.205" x2="166.886" y1="89.625" y2="89.625" fill="none" stroke="#FFF" stroke-linecap="round" stroke-linejoin="round" stroke-width="3"/><line id="line468" x1="152.205" x2="166.886" y1="89.625" y2="89.625" fill="none" stroke="#000" stroke-linecap="round" stroke-linejoin="round" stroke-width=".5"/></g><circle id="circle472" cx="77.75" cy="185.769" r="3.774" fill="#999" stroke="#000" stroke-width=".5"/><circle id="circle474" cx="59.911" cy="221.032" r="3.774" fill="#999" stroke="#000" stroke-width=".5"/><circle id="circle476" cx="77.981" cy="221.032" r="3.774" fill="none" stroke="#000" stroke-width=".5"/><circle id="circle478" cx="77.981" cy="221.032" r="2.265" fill="none" stroke="#000" stroke-width=".5"/><circle id="circle480" cx="77.98" cy="221.031" r=".944" stroke="#000" stroke-width=".5"/><circle id="circle482" cx="50.411" cy="221.032" r="3.774" fill="#999" stroke="#000" stroke-width=".5"/><circle id="circle484" cx="40.76" cy="221.032" r="3.774" fill="#999" stroke="#000" stroke-width=".5"/><circle id="circle486" cx="31.26" cy="221.032" r="3.774" fill="#999" stroke="#000" stroke-width=".5"/><circle id="circle488" cx="21.61" cy="221.032" r="3.774" fill="#999" stroke="#000" stroke-width=".5"/><circle id="circle490" cx="12.11" cy="221.032" r="3.774" fill="#999" stroke="#000" stroke-width=".5"/><circle id="circle492" cx="68.65" cy="221.032" r="3.775" stroke="#000" stroke-width=".5"/><circle id="circle494" cx="77.72" cy="197.667" r="3.775" stroke="#000" stroke-width=".5"/><circle id="circle496" cx="77.72" cy="209.417" r="3.775" fill="none" stroke="#000" stroke-width=".5"/><circle id="circle498" cx="77.72" cy="209.416" r="2.266" fill="none" stroke="#000" stroke-width=".5"/><circle id="circle500" cx="77.72" cy="209.416" r=".943" stroke="#000" stroke-width=".5"/><text id="text512" transform="matrix(1 0 0 1 87.0269 176.5723)"><tspan id="tspan502" x="0" y="0" font-family="'Helvetica'" font-size="9">Spare disk </tspan><tspan id="tspan504" x="0" y="12" font-family="'Helvetica'" font-size="9">Data disk </tspan><tspan id="tspan506" x="0" y="24" font-family="'Helvetica'" font-size="9">Parity disk</tspan><tspan id="tspan508" x="0" y="36" font-family="'Helvetica'" font-size="9">dParity disk</tspan><tspan id="tspan510" x="0" y="48" font-family="'Helvetica'" font-size="9">RAID group</tspan></text><rect id="rect514" width="145.133" height="63.957" x="3.304" y="165.436" fill="none" stroke="#000" stroke-width=".55"/><circle id="circle516" cx="77.526" cy="174.031" r="3.774" fill="none" stroke="#000" stroke-width=".5"/><text id="text518" font-family="'Helvetica'" font-size="9" transform="matrix(1 0 0 1 6.6055 176.2969)">Legend</text><polyline id="polyline520" fill="none" stroke="#000" stroke-width=".55" points="2.91 182.032 41.91 182.032 41.91 165.032"/></svg>