<svg xmlns="http://www.w3.org/2000/svg" xmlns:ev="http://www.w3.org/2001/xml-events" xmlns:xlink="http://www.w3.org/1999/xlink" width="494" height="532.718" class="st14" color-interpolation-filters="sRGB" viewBox="0 0 370.5 399.539" xml:space="preserve"><style type="text/css">.st1{fill:none;stroke:none;stroke-linecap:round;stroke-linejoin:round;stroke-width:.25}.st2{fill:#000;font-family:Calibri;font-size:.666664em}.st3{visibility:visible}.st4,.st5{stroke-linecap:round;stroke-linejoin:round}.st4{fill:#cdcdcd;fill-opacity:.25;stroke:#cdcdcd;stroke-opacity:.25;stroke-width:.25}.st5{fill:url(#grad30-13);stroke:#404040}.st5,.st6,.st7,.st8{stroke-width:.25}.st6{fill:#fae9dc;fill-opacity:.5;stroke:none;stroke-linecap:round;stroke-linejoin:round}.st7,.st8{fill:none}.st7{stroke:#cdcdcd;stroke-linecap:round;stroke-linejoin:round;stroke-opacity:.5}.st8{stroke:#404040}.st10,.st11,.st12,.st13,.st8,.st9{stroke-linecap:round;stroke-linejoin:round}.st9{fill:#cdcdcd;fill-opacity:.5;stroke:#cdcdcd;stroke-opacity:.5;stroke-width:.25}.st10,.st11,.st12{stroke:#404040}.st10{fill:url(#grad30-39);stroke-width:.25}.st11,.st12,.st13{stroke-width:1}.st12,.st13{stroke-dasharray:7,5}.st13{stroke:#000}.st14{fill:none;fill-rule:evenodd;font-size:12px;overflow:visible;stroke-linecap:square;stroke-miterlimit:3}</style><defs id="Patterns_And_Gradients"><linearGradient id="grad30-13" x1="0" x2="0" y1="1" y2="0"><stop offset="0" style="stop-color:#f7d8c1;stop-opacity:.5"/><stop offset="1" style="stop-color:#fae9dc;stop-opacity:.5"/></linearGradient><linearGradient id="grad30-39" x1="0" x2="0" y1="1" y2="0"><stop offset="0" style="stop-color:#f0f0f0;stop-opacity:1"/><stop offset="1" style="stop-color:#fff;stop-opacity:1"/></linearGradient></defs><g><title>Page-1</title><g id="shape19-1" transform="translate(199.5,-355.553)"><title>Sheet.19</title><desc>cluster_B</desc><rect width="100" height="25.736" x="0" y="373.803" class="st1"/><text x="2" y="389.07" class="st2">cluster_B</text></g><g id="shape15-4" transform="translate(19.5,-354.94)"><title>Sheet.15</title><desc>cluster_A</desc><rect width="100" height="26.349" x="0" y="373.19" class="st1"/><text x="2" y="388.76" class="st2">cluster_A</text></g><g id="group36-7" transform="translate(27.25,-195.19)"><title>Sheet.36</title><g id="shape34-8"><title>Process.34</title><g id="shadow34-9" class="st3" transform="matrix(1,0,0,1,1.44,1.44)"><rect width="270" height="157.5" x="0" y="242.039" class="st4"/></g><rect width="270" height="157.5" x="0" y="242.039" class="st5"/></g><g id="shape35-14" transform="translate(1.59872E-014,-145.5)"><title>Sheet.35</title><desc>DR Group One</desc><rect width="100" height="12" x="0" y="387.539" class="st1"/><text x="2" y="396.74" class="st2">DR Group One</text></g></g><g id="group37-17" transform="translate(27.25,-26.44)"><title>Sheet.37</title><g id="shape38-18"><title>Process.34</title><g id="shadow38-19" class="st3" transform="matrix(1,0,0,1,1.44,1.44)"><rect width="270" height="157.5" x="0" y="242.039" class="st4"/></g><rect width="270" height="157.5" x="0" y="242.039" class="st5"/></g><g id="shape39-23" transform="translate(1.59872E-014,-145.5)"><title>Sheet.39</title><desc>DR Group Two</desc><rect width="100" height="12" x="0" y="387.539" class="st6"/><text x="2" y="396.74" class="st2">DR Group Two</text></g></g><g id="shape18-26" transform="translate(198.25,-19.69)"><title>Process.14</title><g id="shadow18-27" class="st3" transform="matrix(1,0,0,1,1.44,1.44)"><rect width="108" height="342.651" x="0" y="56.888" class="st7"/></g><rect width="108" height="342.651" x="0" y="56.888" class="st8"/></g><g id="shape14-30" transform="translate(18.25,-19.69)"><title>Process.14</title><g id="shadow14-31" class="st3" transform="matrix(1,0,0,1,1.44,1.44)"><rect width="108" height="342.651" x="0" y="56.888" class="st7"/></g><rect width="108" height="342.651" x="0" y="56.888" class="st8"/></g><g id="shape1-34" transform="translate(36.25,-285.19)"><title>Process</title><desc>node_A_1</desc><g id="shadow1-35" class="st3" transform="matrix(1,0,0,1,1.44,1.44)"><rect width="72" height="54" x="0" y="345.539" class="st9"/></g><rect width="72" height="54" x="0" y="345.539" class="st10"/><text x="19.37" y="374.94" class="st2">node_A_1</text></g><g id="shape2-41" transform="translate(36.25,-204.19)"><title>Process.2</title><desc>node_A_2</desc><g id="shadow2-42" class="st3" transform="matrix(1,0,0,1,1.44,1.44)"><rect width="72" height="54" x="0" y="345.539" class="st9"/></g><rect width="72" height="54" x="0" y="345.539" class="st10"/><text x="19.37" y="374.94" class="st2">node_A_2</text></g><g id="shape3-47" transform="translate(63.25,-285.19)"><title>Dynamic connector</title><path d="M9 399.54 L9 426.54" class="st11"/></g><g id="shape4-51" transform="translate(216.25,-285.19)"><title>Process.4</title><desc>node_B_1</desc><g id="shadow4-52" class="st3" transform="matrix(1,0,0,1,1.44,1.44)"><rect width="72" height="54" x="0" y="345.539" class="st9"/></g><rect width="72" height="54" x="0" y="345.539" class="st10"/><text x="19.51" y="374.94" class="st2">node_B_1</text></g><g id="shape5-57" transform="translate(216.25,-204.19)"><title>Process.5</title><desc>node_B_2</desc><g id="shadow5-58" class="st3" transform="matrix(1,0,0,1,1.44,1.44)"><rect width="72" height="54" x="0" y="345.539" class="st9"/></g><rect width="72" height="54" x="0" y="345.539" class="st10"/><text x="19.51" y="374.94" class="st2">node_B_2</text></g><g id="shape6-63" transform="translate(243.25,-285.19)"><title>Dynamic connector.6</title><path d="M9 399.54 L9 426.54" class="st11"/></g><g id="shape7-67" transform="translate(108.25,-303.19)"><title>Dynamic connector.7</title><path d="M0 390.54 L108 390.54" class="st12"/></g><g id="shape8-71" transform="translate(108.25,-222.19)"><title>Dynamic connector.8</title><path d="M0 390.54 L108 390.54" class="st13"/></g><g id="shape11-75" transform="translate(252.25,-265.69)"><title>Sheet.11</title><desc>HA pair</desc><rect width="100" height="12" x="0" y="387.539" class="st1"/><text x="2" y="395.94" class="st2">HA pair</text></g><g id="shape12-78" transform="translate(72.25,-264.19)"><title>Sheet.12</title><desc>HA pair</desc><rect width="100" height="12" x="0" y="387.539" class="st1"/><text x="2" y="395.94" class="st2">HA pair</text></g><g id="group13-81" transform="translate(106,-234.19)"><title>Sheet.13</title><g id="shape9-82" transform="translate(3.9375,-81.3125)"><title>Sheet.9</title><desc>DR pair</desc><rect width="100" height="12" x="0" y="387.539" class="st1"/><text x="38.13" y="395.94" class="st2">DR pair</text></g><g id="shape10-85"><title>Sheet.10</title><desc>DR pair</desc><rect width="100" height="12" x="0" y="387.539" class="st1"/><text x="38.13" y="395.94" class="st2">DR pair</text></g></g><g id="group33-88" transform="translate(35.25,-33.19)"><title>Sheet.33</title><g id="shape20-89" transform="translate(0,-81)"><title>Process.20</title><desc>node_A_3</desc><g id="shadow20-90" class="st3" transform="matrix(1,0,0,1,1.44,1.44)"><rect width="72" height="54" x="0" y="345.539" class="st9"/></g><rect width="72" height="54" x="0" y="345.539" class="st10"/><text x="19.37" y="374.94" class="st2">node_A_3</text></g><g id="shape21-95"><title>Process.21</title><desc>node_A_4</desc><g id="shadow21-96" class="st3" transform="matrix(1,0,0,1,1.44,1.44)"><rect width="72" height="54" x="0" y="345.539" class="st9"/></g><rect width="72" height="54" x="0" y="345.539" class="st10"/><text x="19.37" y="374.94" class="st2">node_A_4</text></g><g id="shape22-101" transform="translate(27,-81)"><title>Dynamic connector.22</title><path d="M9 399.54 L9 426.54" class="st11"/></g><g id="shape23-105" transform="translate(180,-81)"><title>Process.23</title><desc>node_B_3</desc><g id="shadow23-106" class="st3" transform="matrix(1,0,0,1,1.44,1.44)"><rect width="72" height="54" x="0" y="345.539" class="st9"/></g><rect width="72" height="54" x="0" y="345.539" class="st10"/><text x="19.51" y="374.94" class="st2">node_B_3</text></g><g id="shape24-111" transform="translate(180,0)"><title>Process.24</title><desc>node_B_4</desc><g id="shadow24-112" class="st3" transform="matrix(1,0,0,1,1.44,1.44)"><rect width="72" height="54" x="0" y="345.539" class="st9"/></g><rect width="72" height="54" x="0" y="345.539" class="st10"/><text x="19.51" y="374.94" class="st2">node_B_4</text></g><g id="shape25-117" transform="translate(207,-81)"><title>Dynamic connector.25</title><path d="M9 399.54 L9 426.54" class="st11"/></g><g id="shape26-121" transform="translate(72,-99)"><title>Dynamic connector.26</title><path d="M0 390.54 L108 390.54" class="st12"/></g><g id="shape27-125" transform="translate(72,-18)"><title>Dynamic connector.27</title><path d="M0 390.54 L108 390.54" class="st13"/></g><g id="shape28-129" transform="translate(216,-61.5)"><title>Sheet.28</title><desc>HA pair</desc><rect width="100" height="12" x="0" y="387.539" class="st1"/><text x="2" y="395.94" class="st2">HA pair</text></g><g id="shape29-132" transform="translate(36,-60)"><title>Sheet.29</title><desc>HA pair</desc><rect width="100" height="12" x="0" y="387.539" class="st1"/><text x="2" y="395.94" class="st2">HA pair</text></g><g id="group30-135" transform="translate(70.75,-30)"><title>Sheet.30</title><g id="shape31-136" transform="translate(3.9375,-81.3125)"><title>Sheet.31</title><desc>DR pair</desc><rect width="100" height="12" x="0" y="387.539" class="st1"/><text x="38.13" y="395.94" class="st2">DR pair</text></g><g id="shape32-139"><title>Sheet.32</title><desc>DR pair</desc><rect width="100" height="12" x="0" y="387.539" class="st1"/><text x="38.13" y="395.94" class="st2">DR pair</text></g></g></g></g></svg>