<svg xmlns="http://www.w3.org/2000/svg" xmlns:svg="http://www.w3.org/2000/svg" id="Layer_1" width="266.334" height="176.334" x="0" y="0" contentScriptType="application/ecmascript" contentStyleType="text/css" enable-background="new 0 0 266.334 176.334" preserveAspectRatio="xMidYMid meet" version="1.1" viewBox="0 0 266.334 176.334" zoomAndPan="magnify" xml:space="preserve"><polygon id="polygon29012" fill="#D1D3D4" stroke="#000" points="261.312 169.971 5.249 169.999 5.249 6.028 261.312 6"/><path id="path29014" fill="#FFF" stroke="#000" d="M253.624,103.938c0,5.965-4.835,10.801-10.8,10.801H24.062 c-5.964,0-10.799-4.836-10.799-10.801V36.633c0-5.964,4.835-10.799,10.799-10.799h218.762c5.965,0,10.8,4.835,10.8,10.799V103.938z"/><path id="path29016" fill="none" stroke="#A7A9AC" stroke-dasharray="6" stroke-width="2" d="M117.98,89.375c0,4.682-3.017,8.478-6.739,8.478 H66.629c-3.722,0-6.739-3.796-6.739-8.478V63.494c0-4.681,3.018-8.476,6.739-8.476h44.612c3.722,0,6.739,3.795,6.739,8.476V89.375z"/><text id="text29018" x="96.719" y="19.485" font-family="Helvetica" font-size="9">Local tier (aggregate)</text><text id="text29020" font-family="'Helvetica'" font-size="9" transform="matrix(1 0 0 1 62.2402 42.9854)">Plex0 (pool0)</text><text id="text29022" font-family="'Helvetica'" font-size="9" transform="matrix(1 0 0 1 182.3799 42.9854)">Plex1 (pool1)</text><circle id="circle29024" cx="75.652" cy="71.315" r="3.775" fill="#999" stroke="#000" stroke-width=".5"/><circle id="circle29026" cx="84.462" cy="71.315" r="3.775" fill="#999" stroke="#000" stroke-width=".5"/><circle id="circle29028" cx="93.272" cy="71.315" r="3.774" fill="#999" stroke="#000" stroke-width=".5"/><circle id="circle29030" cx="102.082" cy="71.315" r="3.775" fill="#999" stroke="#000" stroke-width=".5"/><circle id="circle29032" cx="81.082" cy="132.315" r="3.775" fill="#999" stroke="#000" stroke-width=".5"/><circle id="circle29034" cx="75.652" cy="81.804" r="3.775" fill="#999" stroke="#000" stroke-width=".5"/><circle id="circle29036" cx="84.462" cy="81.804" r="3.775" fill="#999" stroke="#000" stroke-width=".5"/><circle id="circle29038" cx="93.272" cy="81.804" r="3.774" fill="#999" stroke="#000" stroke-width=".5"/><circle id="circle29040" cx="102.082" cy="81.804" r="3.775" fill="#999" stroke="#000" stroke-width=".5"/><circle id="circle29042" cx="54.652" cy="147.47" r="3.775" fill="#999" stroke="#000" stroke-width=".5"/><circle id="circle29044" cx="63.462" cy="147.47" r="3.775" fill="#999" stroke="#000" stroke-width=".5"/><circle id="circle29046" cx="72.272" cy="147.47" r="3.774" fill="#999" stroke="#000" stroke-width=".5"/><circle id="circle29048" cx="81.082" cy="147.47" r="3.775" fill="#999" stroke="#000" stroke-width=".5"/><g id="g29054"><line id="line29050" x1="42.453" x2="68.455" y1="71.754" y2="71.754" fill="none" stroke="#FFF" stroke-linecap="round" stroke-linejoin="round" stroke-width="3"/><line id="line29052" x1="42.453" x2="68.455" y1="71.754" y2="71.754" fill="none" stroke="#000" stroke-linecap="round" stroke-linejoin="round" stroke-width=".5"/></g><g id="g29060"><line id="line29056" x1="42.432" x2="68.455" y1="82.754" y2="82.754" fill="none" stroke="#FFF" stroke-linecap="round" stroke-linejoin="round" stroke-width="3"/><line id="line29058" x1="42.432" x2="68.455" y1="82.754" y2="82.754" fill="none" stroke="#000" stroke-linecap="round" stroke-linejoin="round" stroke-width=".5"/></g><path id="path29062" fill="none" stroke="#A7A9AC" stroke-dasharray="6" stroke-width="2" d="M236.819,89.37c0,4.685-2.999,8.482-6.7,8.482h-44.355 c-3.699,0-6.7-3.798-6.7-8.482V63.476c0-4.684,3.001-8.481,6.7-8.481h44.355c3.701,0,6.7,3.797,6.7,8.481V89.37z"/><circle id="circle29064" cx="194.493" cy="71.315" r="3.775" fill="#999" stroke="#000" stroke-width=".5"/><circle id="circle29066" cx="203.302" cy="71.315" r="3.775" fill="#999" stroke="#000" stroke-width=".5"/><circle id="circle29068" cx="212.111" cy="71.315" r="3.774" fill="#999" stroke="#000" stroke-width=".5"/><circle id="circle29070" cx="220.922" cy="71.315" r="3.775" fill="#999" stroke="#000" stroke-width=".5"/><circle id="circle29072" cx="194.493" cy="81.804" r="3.775" fill="#999" stroke="#000" stroke-width=".5"/><circle id="circle29074" cx="203.302" cy="81.804" r="3.775" fill="#999" stroke="#000" stroke-width=".5"/><circle id="circle29076" cx="212.111" cy="81.804" r="3.774" fill="#999" stroke="#000" stroke-width=".5"/><circle id="circle29078" cx="220.922" cy="81.804" r="3.775" fill="#999" stroke="#000" stroke-width=".5"/><g id="g29084"><line id="line29080" x1="159.453" x2="185.455" y1="71.421" y2="71.421" fill="none" stroke="#FFF" stroke-linecap="round" stroke-linejoin="round" stroke-width="3"/><line id="line29082" x1="159.453" x2="185.455" y1="71.421" y2="71.421" fill="none" stroke="#000" stroke-linecap="round" stroke-linejoin="round" stroke-width=".5"/></g><g id="g29090"><line id="line29086" x1="159.786" x2="185.789" y1="81.754" y2="81.754" fill="none" stroke="#FFF" stroke-linecap="round" stroke-linejoin="round" stroke-width="3"/><line id="line29088" x1="159.786" x2="185.789" y1="81.754" y2="81.754" fill="none" stroke="#000" stroke-linecap="round" stroke-linejoin="round" stroke-width=".5"/></g><rect id="rect29092" width="20.001" height="10" x="142.432" y="67.738" fill="none"/><text id="text29094" font-family="'Helvetica'" font-size="9" transform="matrix(1 0 0 1 142.4316 74.1997)">rg0</text><rect id="rect29096" width="20" height="10" x="24.765" y="67.738" fill="none"/><text id="text29098" font-family="'Helvetica'" font-size="9" transform="matrix(1 0 0 1 24.7651 74.1997)">rg0</text><rect id="rect29100" width="20.001" height="10" x="142.765" y="78.405" fill="none"/><text id="text29102" font-family="'Helvetica'" font-size="9" transform="matrix(1 0 0 1 142.7656 84.8677)">rg1</text><rect id="rect29104" width="20" height="10" x="25.098" y="78.405" fill="none"/><text id="text29106" font-family="'Helvetica'" font-size="9" transform="matrix(1 0 0 1 25.0981 84.8677)">rg1</text><rect id="rect29108" width="110.333" height="12.333" x="97.098" y="129.738" fill="none"/><text id="text29110" font-family="Helvetica" font-size="9" transform="translate(97.0981,136.2002)">Array LUN in the local tier</text><rect id="rect29112" width="110.333" height="12.333" x="96.765" y="144.738" fill="none"/><text id="text29114" font-family="Helvetica" font-size="9" transform="translate(96.7646,151.2002)">ONTAP RAID group</text></svg>