<svg xmlns="http://www.w3.org/2000/svg" xmlns:xlink="http://www.w3.org/1999/xlink" width="239.5" height="380.667" contentScriptType="application/ecmascript" contentStyleType="text/css" enable-background="new 0 0 239.5 380.667" overflow="visible" preserveAspectRatio="xMidYMid meet" version="1.1" viewBox="0 0 239.5 380.667" zoomAndPan="magnify" xml:space="preserve"><g id="text"><rect width="95" height="41.5" x="71.5" y="71.417" fill="none"/><text transform="matrix(1 0 0 1 85.4844 77.8784)"><tspan x="0" y="0" font-family="'Helvetica'" font-size="9">Do you know the </tspan><tspan x="8.257" y="10.8" font-family="'Helvetica'" font-size="9">performance </tspan><tspan x="-6.75" y="21.6" font-family="'Helvetica'" font-size="9">requirements for the </tspan><tspan x="10.76" y="32.4" font-family="'Helvetica'" font-size="9">workloads?</tspan></text><rect width="75" height="31.5" y="158.917" fill="none"/><text transform="matrix(1 0 0 1 11.2432 165.3784)"><tspan x="0" y="0" font-family="'Helvetica'" font-size="9">Create policy </tspan><tspan x="3.248" y="10.8" font-family="'Helvetica'" font-size="9">groups with </tspan><tspan x="-6.755" y="21.6" font-family="'Helvetica'" font-size="9">throughput limits</tspan></text><rect width="86" height="29.5" x="77" y="220.417" fill="none"/><text transform="matrix(1 0 0 1 82.7314 226.8784)"><tspan x="0" y="0" font-family="'Helvetica'" font-size="9">Assign the storage </tspan><tspan x="5.256" y="10.8" font-family="'Helvetica'" font-size="9">objects to policy </tspan><tspan x="23.512" y="21.6" font-family="'Helvetica'" font-size="9">groups</tspan></text><rect width="86" height="24" x="77" y="287.917" fill="none"/><text transform="matrix(1 0 0 1 78.4873 294.3784)"><tspan x="0" y="0" font-family="'Helvetica'" font-size="9">Monitor performance </tspan><tspan x="2.003" y="10.8" font-family="'Helvetica'" font-size="9">by viewing statistics</tspan></text><rect width="61.5" height="31.5" x="89" y="345.417" fill="none"/><text transform="matrix(1 0 0 1 94.4922 351.8784)"><tspan x="0" y="0" font-family="'Helvetica'" font-size="9">Adjust policy </tspan><tspan x="-4.258" y="10.8" font-family="'Helvetica'" font-size="9">group settings, </tspan><tspan x="1.25" y="21.601" font-family="'Helvetica'" font-size="9">if necessary</tspan></text><rect width="76.5" height="32" x="163" y="158.917" fill="none"/><text transform="matrix(1 0 0 1 174.9932 165.3784)"><tspan x="0" y="0" font-family="'Helvetica'" font-size="9">Create policy </tspan><tspan x="-3.007" y="10.8" font-family="'Helvetica'" font-size="9">groups without </tspan><tspan x="-6.755" y="21.6" font-family="'Helvetica'" font-size="9">throughput limits</tspan></text><rect width="21" height="10.5" x="55" y="129.917" fill="none"/><text font-family="'Helvetica'" font-size="9" transform="matrix(1 0 0 1 57.7461 136.3784)">Yes</text><rect width="21" height="10.5" x="160.5" y="129.917" fill="none"/><text font-family="'Helvetica'" font-size="9" transform="matrix(1 0 0 1 165.249 136.3784)">No</text><rect width="97.5" height="52" x="70" y="65.417" fill="none" stroke="#000" stroke-linecap="round" stroke-linejoin="round" stroke-width=".5"/><rect width="95" height="31" x="71.5" y="7.25" fill="none"/><text transform="matrix(1 0 0 1 72.7266 13.7124)"><tspan x="0" y="0" font-family="'Helvetica'" font-size="9">Identify storage objects </tspan><tspan x="10.508" y="10.8" font-family="'Helvetica'" font-size="9">to assign to policy </tspan><tspan x="32.517" y="21.6" font-family="'Helvetica'" font-size="9">groups</tspan></text><rect width="97.5" height="41.5" x="70" y=".25" fill="none" stroke="#000" stroke-linecap="round" stroke-linejoin="round" stroke-width=".5"/><rect width="73" height="39" x="1.5" y="153.917" fill="none" stroke="#000" stroke-linecap="round" stroke-linejoin="round" stroke-width=".5"/><rect width="71" height="39" x="165.5" y="153.917" fill="none" stroke="#000" stroke-linecap="round" stroke-linejoin="round" stroke-width=".5"/><rect width="81.5" height="39" x="79.5" y="214.417" fill="none" stroke="#000" stroke-linecap="round" stroke-linejoin="round" stroke-width=".5"/><rect width="88.5" height="39" x="76" y="278.417" fill="none" stroke="#000" stroke-linecap="round" stroke-linejoin="round" stroke-width=".5"/><rect width="81.5" height="39" x="79.5" y="341.417" fill="none" stroke="#000" stroke-linecap="round" stroke-linejoin="round" stroke-width=".5"/><line x1="114" x2="59.5" y1="117.917" y2="151.917" fill="none" stroke="#000" stroke-linecap="round" stroke-linejoin="round" stroke-width=".5"/><line x1="177.5" x2="126" y1="151.917" y2="117.917" fill="none" stroke="#000" stroke-linecap="round" stroke-linejoin="round" stroke-width=".5"/><line x1="35" x2="107.5" y1="193.417" y2="213.139" fill="none" stroke="#000" stroke-linecap="round" stroke-linejoin="round" stroke-width=".5"/><line x1="202" x2="132.5" y1="193.167" y2="212.667" fill="none" stroke="#000" stroke-linecap="round" stroke-linejoin="round" stroke-width=".5"/><line x1="119.5" x2="119.5" y1="254.417" y2="273.917" fill="none" stroke="#000" stroke-linecap="round" stroke-linejoin="round" stroke-width=".5"/><line x1="119.5" x2="119.5" y1="317.667" y2="336.417" fill="none" stroke="#000" stroke-linecap="round" stroke-linejoin="round" stroke-width=".5"/><polygon fill="#000100" stroke="#000100" points="57.237 153.115 60.079 149.968 62.922 146.82 64.182 148.891 65.441 150.962 61.339 152.039"/><polygon fill="#000100" stroke="#000100" points="179.259 152.957 176.29 149.93 173.32 146.902 172.146 149.022 170.974 151.144 175.115 152.051"/><polygon fill="#000100" stroke="#000100" points="109.721 213.502 106.225 211.042 102.729 208.58 101.984 210.946 101.242 213.312 105.48 213.408"/><polygon fill="#000100" stroke="#000100" points="129.507 213.459 133.74 213.239 137.976 213.019 137.164 210.735 136.351 208.452 132.929 210.954"/><polygon fill="#000100" stroke="#000100" points="119.496 276.844 120.687 272.776 121.878 268.706 119.455 268.717 117.03 268.73 118.262 272.787"/><polygon fill="#000100" stroke="#000100" points="119.496 340.094 120.687 336.026 121.878 331.956 119.455 331.967 117.03 331.98 118.262 336.037"/><line x1="119.5" x2="119.5" y1="42.333" y2="61.083" fill="none" stroke="#000" stroke-linecap="round" stroke-linejoin="round" stroke-width=".5"/><polygon fill="#000100" stroke="#000100" points="119.496 64.761 120.687 60.693 121.878 56.623 119.455 56.634 117.03 56.647 118.262 60.704"/></g></svg>