<svg xmlns="http://www.w3.org/2000/svg" xmlns:xlink="http://www.w3.org/1999/xlink" width="305.167" height="268.603" contentScriptType="application/ecmascript" contentStyleType="text/css" enable-background="new 0 0 305.167 268.603" overflow="visible" preserveAspectRatio="xMidYMid meet" version="1.1" viewBox="0 0 305.167 268.603" zoomAndPan="magnify" xml:space="preserve"><g id="lines"><line x1="154.667" x2="154.667" y1="35.936" y2="99.603" fill="none" stroke="#000" stroke-width="2"/><polyline fill="none" stroke="#000" stroke-width="2" points="36.333 203.603 153.667 128.27 218.667 204.603"/><line x1="172" x2="161" y1="34.936" y2="99.603" fill="none" stroke="#000" stroke-dasharray="12" stroke-width="2"/><polyline fill="none" stroke="#000" stroke-dasharray="12" stroke-width="2" points="108.667 203.603 153.667 128.27 272 202.937"/></g><g id="boxes"><rect width="135" height="19.5" x="89.333" y="18.77" fill="#8C8C8C" stroke="#000" stroke-linecap="round" stroke-linejoin="round" stroke-width=".5"/><rect width="130.667" height="15.667" x="91.5" y="20.77" fill="none" stroke="#000" stroke-linecap="round" stroke-linejoin="round" stroke-width=".5"/><g><path fill="#B2B2B2" stroke="#000" stroke-linecap="round" stroke-linejoin="round" stroke-width=".5" d="M94.832,23.603h22 v9.333H94.499C94.499,32.936,100.665,28.769,94.832,23.603z"/><path fill="#B2B2B2" stroke="#000" stroke-linecap="round" stroke-linejoin="round" stroke-width=".5" d="M218.999,33.103h-22 v-9.333h22.333C219.332,23.769,213.166,27.936,218.999,33.103z"/><ellipse cx="159.749" cy="28.353" fill="#B2B2B2" stroke="#000" stroke-linecap="round" stroke-linejoin="round" stroke-width=".5" rx="8.75" ry="5.083"/></g><polyline fill="#8C8C8C" stroke="#000" stroke-linecap="round" stroke-linejoin="round" stroke-width=".5" points="88.667 38.103 81 33.27 81 21.603 88.667 19.436"/><polygon fill="#666" stroke="#000" stroke-linecap="round" stroke-linejoin="round" points="8.333 240.104 .5 235.271 .5 207.771 8.333 202.104 143.333 202.104 143.333 239.771"/><line x1="8.333" x2="8.333" y1="202.104" y2="240.104" fill="none" stroke="#000" stroke-linecap="round" stroke-linejoin="round"/><path fill="none" stroke="#000" stroke-linecap="round" stroke-linejoin="round" d="M138.333,234.771v3.166L14,237.437v-3.333 c0,0-4.5-11.166,0.667-25.833v-3.5h123v3c0,0,5.333,10.5,0.833,26.5"/><path fill="#B2B2B2" stroke="#000" stroke-linecap="round" stroke-linejoin="round" stroke-width="2" d="M19.333,231.104 c0,0-0.5-13,0-16s1.667-6.667,8.667-6.5s52.5,4.333,52.5,4.333l50.5-4.5c0,0,9.667,11.334,0.833,25.334c0,0-40.333,1.167-56-2.5 l-47.833,3C28,234.271,20.833,234.771,19.333,231.104z"/><path fill="none" stroke="#000" stroke-linecap="round" stroke-linejoin="round" d="M32.833,209.271c0,0,0.667,21,2.167,24.833"/><path fill="none" stroke="#000" stroke-linecap="round" stroke-linejoin="round" d="M48.167,210.271c0,0-1.5,16,1.167,22.5"/><path fill="none" stroke="#000" stroke-linecap="round" stroke-linejoin="round" d="M61.5,211.604 c0,0-0.333,16.499,0.333,20.333"/><path fill="none" stroke="#000" stroke-linecap="round" stroke-linejoin="round" d="M75.5,212.771c0,0.5-0.5,18.333-0.5,18.333"/><rect width="1.833" height="1.334" x="62.5" y="234.437" stroke="#000"/><rect width="1.833" height="1.334" x="66.333" y="234.604" stroke="#000"/><rect width="1.833" height="1.501" x="69" y="234.021" stroke="#000"/><rect width="1.833" height="1.596" x="72.5" y="233.557" stroke="#000"/><polygon fill="#666" stroke="#000" stroke-linecap="round" stroke-linejoin="round" points="169.667 240.104 161.834 235.271 161.834 207.771 169.667 202.104 304.667 202.104 304.667 239.771"/><line x1="169.667" x2="169.667" y1="202.104" y2="240.104" fill="none" stroke="#000" stroke-linecap="round" stroke-linejoin="round"/><path fill="none" stroke="#000" stroke-linecap="round" stroke-linejoin="round" d="M299.667,234.771v3.166l-124.333-0.5v-3.333 c0,0-4.501-11.166,0.666-25.833v-3.5h123v3c0,0,5.334,10.5,0.834,26.5"/><path fill="#B2B2B2" stroke="#000" stroke-linecap="round" stroke-linejoin="round" stroke-width="2" d="M180.667,231.104 c0,0-0.5-13,0-16s1.667-6.667,8.667-6.5s52.5,4.333,52.5,4.333l50.5-4.5c0,0,9.666,11.334,0.833,25.334c0,0-40.333,1.167-56-2.5 l-47.833,3C189.334,234.271,182.167,234.771,180.667,231.104z"/><path fill="none" stroke="#000" stroke-linecap="round" stroke-linejoin="round" d="M194.167,209.271c0,0,0.667,21,2.167,24.833"/><path fill="none" stroke="#000" stroke-linecap="round" stroke-linejoin="round" d="M209.5,210.271c0,0-1.5,16,1.167,22.5"/><path fill="none" stroke="#000" stroke-linecap="round" stroke-linejoin="round" d="M222.834,211.604 c0,0-0.334,16.499,0.333,20.333"/><path fill="none" stroke="#000" stroke-linecap="round" stroke-linejoin="round" d="M236.834,212.771 c0,0.5-0.5,18.333-0.5,18.333"/><rect width="1.833" height="1.334" x="223.834" y="234.437" stroke="#000"/><rect width="1.834" height="1.334" x="227.666" y="234.604" stroke="#000"/><rect width="1.833" height="1.501" x="230.333" y="234.021" stroke="#000"/><rect width="1.833" height="1.596" x="233.833" y="233.557" stroke="#000"/><rect width="32.667" height="32.333" x="137.667" y="97.937" fill="#B2B2B2" stroke="#000" stroke-linecap="round" stroke-linejoin="round"/><polyline fill="#B2B2B2" stroke="#000" stroke-linecap="round" stroke-linejoin="round" points="137.667 97.937 135.167 99.77 135.167 128.437 137.667 130.27"/><ellipse cx="154.25" cy="108.145" fill="none" stroke="#000" stroke-linecap="round" stroke-linejoin="round" stroke-width=".5" rx="4.5" ry=".708"/><ellipse cx="154.209" cy="108.061" fill="none" stroke="#000" stroke-linecap="round" stroke-linejoin="round" stroke-width=".5" rx="6.625" ry="1.708"/><path fill="none" stroke="#000" stroke-linecap="round" stroke-linejoin="round" stroke-width=".5" d="M154.293,109.103"/><path fill="none" stroke="#000" stroke-linecap="round" stroke-linejoin="round" stroke-width=".5" d="M147.668,108.061v2.75 c0,0.944,2.966,1.708,6.625,1.708s6.625-0.765,6.625-1.708v-2.75"/><path fill="none" stroke="#000" stroke-linecap="round" stroke-linejoin="round" stroke-width=".5" d="M154.209,115.019"/><path fill="none" stroke="#000" stroke-linecap="round" stroke-linejoin="round" stroke-width=".5" d="M160.834,116.981 c0,1.084-2.966,1.963-6.625,1.963s-6.625-0.878-6.625-1.963"/><path fill="none" stroke="#000" stroke-linecap="round" stroke-linejoin="round" stroke-width=".5" d="M149.083,115.103 c-1.334,0.417-1.415,1.878-1.415,1.878v3.159c0,1.084,2.966,1.962,6.625,1.962s6.625-0.878,6.625-1.962v-3.159 c0,0-0.002-1.045-1.335-1.795"/><path fill="none" stroke="#000" stroke-linecap="round" stroke-linejoin="round" stroke-width=".5" d="M149,112.02 c0,0,4.583,1.5,10.5-0.083v4.417c0,0-4.166,3.417-10.333,0.167L149,112.02z"/><path fill="none" stroke="#000" stroke-linecap="round" stroke-linejoin="round" stroke-width=".5" d="M159.25,111.77"/><path fill="none" stroke="#000" stroke-linecap="round" stroke-linejoin="round" stroke-width=".5" d="M159.25,116.353"/><path fill="#3F3F3F" stroke="#000" stroke-linecap="round" stroke-linejoin="round" stroke-width=".5" d="M146.167,104.02v2 l-3.917-3.083l3.583-2.5v1.667h3.75c0,0,2.416,1.167,0,1.917H146.167z"/><path fill="#3F3F3F" stroke="#000" stroke-linecap="round" stroke-linejoin="round" stroke-width=".5" d="M146.167,125.603v2 l-3.917-3.083l3.583-2.5v1.667h3.75c0,0,2.416,1.167,0,1.917H146.167z"/><path fill="#3F3F3F" stroke="#000" stroke-linecap="round" stroke-linejoin="round" stroke-width=".5" d="M162.907,123.77v-2 l3.917,3.083l-3.583,2.5v-1.667h-3.75c0,0-2.416-1.167,0-1.917H162.907z"/><path fill="#3F3F3F" stroke="#000" stroke-linecap="round" stroke-linejoin="round" stroke-width=".5" d="M162.907,102.187v-2 l3.917,3.083l-3.583,2.5v-1.667h-3.75c0,0-2.416-1.167,0-1.917H162.907z"/></g><g id="text"><rect width="29.667" height="10" x="146.332" y="1.27" fill="none"/><text font-family="'Helvetica'" font-size="9" transform="matrix(1 0 0 1 146.332 7.731)">Host</text><rect width="45.667" height="10" x="94.665" y="110.27" fill="none"/><text font-family="'Helvetica'" font-size="9" transform="matrix(1 0 0 1 94.665 116.731)">Switch</text><rect width="40.333" height="10.333" x="51" y="257.937" fill="none"/><text font-family="'Helvetica'" font-size="9" transform="matrix(1 0 0 1 51 264.3984)">Node 01</text><rect width="40.332" height="10.333" x="220.666" y="258.27" fill="none"/><text font-family="'Helvetica'" font-size="9" transform="matrix(1 0 0 1 220.666 264.7314)">Node 02</text><rect width="26.667" height="9.667" x="83.667" y="54.27" fill="none"/><text font-family="'Helvetica'" font-size="8" transform="matrix(1 0 0 1 83.667 60.0137)">HBA 0</text><rect width="26.666" height="9.667" x="195.667" y="54.27" fill="none"/><text font-family="'Helvetica'" font-size="8" transform="matrix(1 0 0 1 195.666 60.0137)">HBA 1</text><rect width="23.333" height="8.667" x="27" y="186.271" fill="none"/><text font-family="'Helvetica'" font-size="8" transform="matrix(1 0 0 1 27.0005 192.0146)">LIF_1</text><rect width="23.333" height="8.667" x="79.667" y="192.604" fill="none"/><text font-family="'Helvetica'" font-size="8" transform="matrix(1 0 0 1 79.667 198.3477)">LIF_2</text><rect width="23.333" height="8.667" x="176" y="184.938" fill="none"/><text font-family="'Helvetica'" font-size="8" transform="matrix(1 0 0 1 176 190.6816)">LIF_3</text><rect width="23.333" height="8.667" x="259.334" y="184.938" fill="none"/><text font-family="'Helvetica'" font-size="8" transform="matrix(1 0 0 1 259.334 190.6816)">LIF_4</text></g></svg>