<svg xmlns="http://www.w3.org/2000/svg" xmlns:xlink="http://www.w3.org/1999/xlink" width="336" height="233" x="0" y="0" enable-background="new 0 0 336 233" version="1.1" viewBox="0 0 336 233" xml:space="preserve"><g id="lines"><line x1="147.25" x2="147.25" y1="48.25" y2="79.25" fill="none" stroke="#000" stroke-linecap="round" stroke-linejoin="round" stroke-width=".5"/><line x1="159" x2="159" y1="48.25" y2="79.25" fill="none" stroke="#000" stroke-linecap="round" stroke-linejoin="round" stroke-width=".5"/><polyline fill="none" stroke="#000" stroke-linecap="round" stroke-linejoin="round" stroke-width=".5" points="170 79.75 170 70.25 271.5 70.25 271.5 49.25"/><polyline fill="none" stroke="#000" stroke-linecap="round" stroke-linejoin="round" stroke-width=".5" points="50 49.25 50 63.75 136.5 63.75 136.5 80.25"/><polyline fill="none" stroke="#000" stroke-linecap="round" stroke-linejoin="round" stroke-width=".5" points="160.417 127.5 160.417 144.125 223.688 144.125 223.688 172.084 210.501 172.084"/><polyline fill="none" stroke="#000" stroke-linecap="round" stroke-linejoin="round" stroke-width=".5" points="171 127.25 171 135.596 246.751 135.596 246.751 178.332 209.833 178.332"/><polyline fill="none" stroke="#000" stroke-linecap="round" stroke-linejoin="round" stroke-width=".5" points="146.334 127.5 146.334 136.667 93.25 136.667 93.25 205.001 104.833 205.001"/><polyline fill="none" stroke="#000" stroke-linecap="round" stroke-linejoin="round" stroke-width=".5" points="135.751 127.25 135.751 131.834 68.833 132.001 68.833 210.167 105.5 210"/></g><g id="boxes"><rect width="84.25" height="5.25" x="3.75" y="34.5" fill="#3F3F3F"/><rect width="84.25" height="5" x="3.75" y="29.25" fill="#B2B2B2"/><rect width="84.25" height="5" x="3.75" y="45.25" fill="#3F3F3F"/><rect width="84.25" height="5" x="3.75" y="40" fill="#B2B2B2"/><line x1="60" x2="60" y1="29.5" y2="50.5" fill="none" stroke="#FFF" stroke-linecap="round" stroke-linejoin="round" stroke-width=".5"/><line x1="42.75" x2="57" y1="30.25" y2="30.25" fill="none" stroke="#FFF" stroke-linecap="round" stroke-linejoin="round" stroke-width=".5"/><ellipse cx="54.625" cy="32.75" fill="#FFF" stroke="#FFF" stroke-linecap="round" stroke-linejoin="round" stroke-width=".5" rx="1.107" ry=".914"/><line x1="42.75" x2="57" y1="35.25" y2="35.25" fill="none" stroke="#FFF" stroke-linecap="round" stroke-linejoin="round" stroke-width=".5"/><ellipse cx="54.625" cy="37.75" fill="#FFF" stroke="#FFF" stroke-linecap="round" stroke-linejoin="round" stroke-width=".5" rx="1.107" ry=".914"/><line x1="71.25" x2="85.5" y1="35.25" y2="35.25" fill="none" stroke="#FFF" stroke-linecap="round" stroke-linejoin="round" stroke-width=".5"/><ellipse cx="83.125" cy="37.75" fill="#FFF" stroke="#FFF" stroke-linecap="round" stroke-linejoin="round" stroke-width=".5" rx="1.107" ry=".914"/><line x1="71.25" x2="85.5" y1="46" y2="46" fill="none" stroke="#FFF" stroke-linecap="round" stroke-linejoin="round" stroke-width=".5"/><ellipse cx="83.125" cy="48.5" fill="#FFF" stroke="#FFF" stroke-linecap="round" stroke-linejoin="round" stroke-width=".5" rx="1.107" ry=".914"/><line x1="42.75" x2="57" y1="41.25" y2="41.25" fill="none" stroke="#FFF" stroke-linecap="round" stroke-linejoin="round" stroke-width=".5"/><ellipse cx="54.625" cy="43.75" fill="#FFF" stroke="#FFF" stroke-linecap="round" stroke-linejoin="round" stroke-width=".5" rx="1.107" ry=".914"/><ellipse cx="83.125" cy="43.75" fill="#FFF" stroke="#FFF" stroke-linecap="round" stroke-linejoin="round" stroke-width=".5" rx="1.107" ry=".914"/><line x1="42.75" x2="57" y1="46.25" y2="46.25" fill="none" stroke="#FFF" stroke-linecap="round" stroke-linejoin="round" stroke-width=".5"/><ellipse cx="54.625" cy="48.75" fill="#FFF" stroke="#FFF" stroke-linecap="round" stroke-linejoin="round" stroke-width=".5" rx="1.107" ry=".914"/><ellipse cx="83.375" cy="32.75" fill="#FFF" stroke="#FFF" stroke-linecap="round" stroke-linejoin="round" stroke-width=".5" rx="1.107" ry=".914"/><rect width="84" height="10" x="4" y="18.5" fill="#3F3F3F"/><rect width="76.25" height="5.25" x="8.25" y="21" fill="#B2B2B2"/><polygon fill="#8C8C8C" points="4 18.5 87.25 18.5 83.25 14.75 8.25 14.75"/><ellipse cx="84.625" cy="23.75" fill="#FFF" stroke="#FFF" stroke-linecap="round" stroke-linejoin="round" stroke-width=".5" rx="1.107" ry=".914"/><rect width="84.25" height="5.25" x="109.417" y="34.5" fill="#3F3F3F"/><rect width="84.25" height="5" x="109.417" y="29.25" fill="#B2B2B2"/><rect width="84.25" height="5" x="109.417" y="45.25" fill="#3F3F3F"/><rect width="84.25" height="5" x="109.417" y="40" fill="#B2B2B2"/><line x1="165.667" x2="165.667" y1="29.5" y2="50.5" fill="none" stroke="#FFF" stroke-linecap="round" stroke-linejoin="round" stroke-width=".5"/><line x1="148.417" x2="162.667" y1="30.25" y2="30.25" fill="none" stroke="#FFF" stroke-linecap="round" stroke-linejoin="round" stroke-width=".5"/><ellipse cx="160.292" cy="32.75" fill="#FFF" stroke="#FFF" stroke-linecap="round" stroke-linejoin="round" stroke-width=".5" rx="1.107" ry=".914"/><line x1="148.417" x2="162.667" y1="35.25" y2="35.25" fill="none" stroke="#FFF" stroke-linecap="round" stroke-linejoin="round" stroke-width=".5"/><ellipse cx="160.292" cy="37.75" fill="#FFF" stroke="#FFF" stroke-linecap="round" stroke-linejoin="round" stroke-width=".5" rx="1.107" ry=".914"/><line x1="176.916" x2="191.166" y1="35.25" y2="35.25" fill="none" stroke="#FFF" stroke-linecap="round" stroke-linejoin="round" stroke-width=".5"/><ellipse cx="188.791" cy="37.75" fill="#FFF" stroke="#FFF" stroke-linecap="round" stroke-linejoin="round" stroke-width=".5" rx="1.107" ry=".914"/><line x1="176.916" x2="191.166" y1="46" y2="46" fill="none" stroke="#FFF" stroke-linecap="round" stroke-linejoin="round" stroke-width=".5"/><ellipse cx="188.791" cy="48.5" fill="#FFF" stroke="#FFF" stroke-linecap="round" stroke-linejoin="round" stroke-width=".5" rx="1.107" ry=".914"/><line x1="148.417" x2="162.667" y1="41.25" y2="41.25" fill="none" stroke="#FFF" stroke-linecap="round" stroke-linejoin="round" stroke-width=".5"/><ellipse cx="160.292" cy="43.75" fill="#FFF" stroke="#FFF" stroke-linecap="round" stroke-linejoin="round" stroke-width=".5" rx="1.107" ry=".914"/><ellipse cx="188.791" cy="43.75" fill="#FFF" stroke="#FFF" stroke-linecap="round" stroke-linejoin="round" stroke-width=".5" rx="1.107" ry=".914"/><line x1="148.417" x2="162.667" y1="46.25" y2="46.25" fill="none" stroke="#FFF" stroke-linecap="round" stroke-linejoin="round" stroke-width=".5"/><ellipse cx="160.292" cy="48.75" fill="#FFF" stroke="#FFF" stroke-linecap="round" stroke-linejoin="round" stroke-width=".5" rx="1.107" ry=".914"/><ellipse cx="189.041" cy="32.75" fill="#FFF" stroke="#FFF" stroke-linecap="round" stroke-linejoin="round" stroke-width=".5" rx="1.107" ry=".914"/><rect width="84" height="10" x="109.667" y="18.5" fill="#3F3F3F"/><rect width="76.25" height="5.25" x="113.917" y="21" fill="#B2B2B2"/><polygon fill="#8C8C8C" points="109.667 18.5 192.916 18.5 188.916 14.75 113.917 14.75"/><ellipse cx="190.291" cy="23.75" fill="#FFF" stroke="#FFF" stroke-linecap="round" stroke-linejoin="round" stroke-width=".5" rx="1.107" ry=".914"/><rect width="84.249" height="5.25" x="248.084" y="34.5" fill="#3F3F3F"/><rect width="84.249" height="5" x="248.084" y="29.25" fill="#B2B2B2"/><rect width="84.249" height="5" x="248.084" y="45.25" fill="#3F3F3F"/><rect width="84.249" height="5" x="248.084" y="40" fill="#B2B2B2"/><line x1="304.334" x2="304.334" y1="29.5" y2="50.5" fill="none" stroke="#FFF" stroke-linecap="round" stroke-linejoin="round" stroke-width=".5"/><line x1="287.084" x2="301.334" y1="30.25" y2="30.25" fill="none" stroke="#FFF" stroke-linecap="round" stroke-linejoin="round" stroke-width=".5"/><ellipse cx="298.959" cy="32.75" fill="#FFF" stroke="#FFF" stroke-linecap="round" stroke-linejoin="round" stroke-width=".5" rx="1.107" ry=".914"/><line x1="287.084" x2="301.334" y1="35.25" y2="35.25" fill="none" stroke="#FFF" stroke-linecap="round" stroke-linejoin="round" stroke-width=".5"/><ellipse cx="298.959" cy="37.75" fill="#FFF" stroke="#FFF" stroke-linecap="round" stroke-linejoin="round" stroke-width=".5" rx="1.107" ry=".914"/><line x1="315.583" x2="329.833" y1="35.25" y2="35.25" fill="none" stroke="#FFF" stroke-linecap="round" stroke-linejoin="round" stroke-width=".5"/><ellipse cx="327.458" cy="37.75" fill="#FFF" stroke="#FFF" stroke-linecap="round" stroke-linejoin="round" stroke-width=".5" rx="1.107" ry=".914"/><line x1="315.583" x2="329.833" y1="46" y2="46" fill="none" stroke="#FFF" stroke-linecap="round" stroke-linejoin="round" stroke-width=".5"/><ellipse cx="327.458" cy="48.5" fill="#FFF" stroke="#FFF" stroke-linecap="round" stroke-linejoin="round" stroke-width=".5" rx="1.107" ry=".914"/><line x1="287.084" x2="301.334" y1="41.25" y2="41.25" fill="none" stroke="#FFF" stroke-linecap="round" stroke-linejoin="round" stroke-width=".5"/><ellipse cx="298.959" cy="43.75" fill="#FFF" stroke="#FFF" stroke-linecap="round" stroke-linejoin="round" stroke-width=".5" rx="1.107" ry=".914"/><ellipse cx="327.458" cy="43.75" fill="#FFF" stroke="#FFF" stroke-linecap="round" stroke-linejoin="round" stroke-width=".5" rx="1.107" ry=".914"/><line x1="287.084" x2="301.334" y1="46.25" y2="46.25" fill="none" stroke="#FFF" stroke-linecap="round" stroke-linejoin="round" stroke-width=".5"/><ellipse cx="298.959" cy="48.75" fill="#FFF" stroke="#FFF" stroke-linecap="round" stroke-linejoin="round" stroke-width=".5" rx="1.107" ry=".914"/><ellipse cx="327.708" cy="32.75" fill="#FFF" stroke="#FFF" stroke-linecap="round" stroke-linejoin="round" stroke-width=".5" rx="1.107" ry=".914"/><rect width="83.999" height="10" x="248.334" y="18.5" fill="#3F3F3F"/><rect width="76.249" height="5.25" x="252.584" y="21" fill="#B2B2B2"/><polygon fill="#8C8C8C" points="248.334 18.5 331.583 18.5 327.583 14.75 252.584 14.75"/><ellipse cx="328.958" cy="23.75" fill="#FFF" stroke="#FFF" stroke-linecap="round" stroke-linejoin="round" stroke-width=".5" rx="1.107" ry=".914"/></g><g id="text"><rect width="27.667" height="8.333" x="8.5" y="4.917" fill="none"/><text font-family="'Helvetica'" font-size="9" transform="matrix(1 0 0 1 8.5 11.3794)">Host 1</text><rect width="27.667" height="8.333" x="113.5" y="4.917" fill="none"/><text font-family="'Helvetica'" font-size="9" transform="matrix(1 0 0 1 113.5 11.3794)">Host 2</text><rect width="27.667" height="8.333" x="252.167" y="4.917" fill="none"/><text font-family="'Helvetica'" font-size="9" transform="matrix(1 0 0 1 252.167 11.3794)">Host N</text><g><rect width="2.625" height="2.625" x="212.688" y="48.771"/><rect width="2.625" height="2.625" x="218.021" y="48.771"/><rect width="2.625" height="2.625" x="223.688" y="48.771"/></g><rect width="51.333" height="7.667" x="129.334" y="149.792" fill="none"/><text font-family="'Helvetica'" font-size="9" transform="matrix(1 0 0 1 129.334 156.2539)">Controller 1</text><rect width="51.333" height="7.667" x="131.516" y="221.166" fill="none"/><text font-family="'Helvetica'" font-size="9" transform="matrix(1 0 0 1 131.5161 227.6279)">Controller 2</text><rect width="115.041" height="21" x="180" y="93.25" fill="none"/><text font-family="'Helvetica'" font-size="9" transform="matrix(1 0 0 1 180 99.7119)">Ethernet capable switch</text><rect width="18.333" height="7.667" x="222.501" y="148.958" fill="none"/><text font-family="'Helvetica'" font-size="9" transform="matrix(1 0 0 1 225.8223 155.4199)">e0a</text><rect width="18.333" height="7.667" x="48.417" y="193.531" fill="none"/><text font-family="'Helvetica'" font-size="9" transform="matrix(1 0 0 1 51.7383 199.9932)">e0a</text><rect width="18.333" height="7.667" x="246.751" y="148.957" fill="none"/><text font-family="'Helvetica'" font-size="9" transform="matrix(1 0 0 1 250.0723 155.4189)">e0b</text><rect width="18.333" height="7.667" x="73.899" y="193.531" fill="none"/><text font-family="'Helvetica'" font-size="9" transform="matrix(1 0 0 1 77.2207 199.9932)">e0b</text></g><g id="outline"><g><rect width="105.667" height="24.667" x="104.833" y="192.501" fill="#3F3F3F"/><polyline fill="#B2B2B2" stroke="#B2B2B2" stroke-linecap="round" stroke-linejoin="round" stroke-width=".5" points="104.833 192.501 109.834 185.501 205.167 185.501 210.501 192.501"/><path fill="#FFF" stroke="#FFF" stroke-linecap="round" stroke-linejoin="round" stroke-width=".5" d="M112.667,213.167 v-17.833c0,0,57-4.166,90,0.167v18C202.667,213.501,142.667,218,112.667,213.167z"/><path fill="#3F3F3F" stroke="#3F3F3F" stroke-linecap="round" stroke-linejoin="round" stroke-width=".5" d="M118.667,196.334 v16.333h-2.5c0,0-3-7.666,0.167-16.333H118.667z"/><path fill="#3F3F3F" stroke="#3F3F3F" stroke-linecap="round" stroke-linejoin="round" stroke-width=".5" d="M126.833,196.334 v16.333h-2.5c0,0-3-7.666,0.167-16.333H126.833z"/><path fill="#3F3F3F" stroke="#3F3F3F" stroke-linecap="round" stroke-linejoin="round" stroke-width=".5" d="M196.882,212.667 v-16.333h2.5c0,0,3,7.666-0.167,16.333H196.882z"/><path fill="#3F3F3F" stroke="#3F3F3F" stroke-linecap="round" stroke-linejoin="round" stroke-width=".5" d="M189.049,212.667 v-17h2.5c0,0,3,7.979-0.167,17H189.049z"/><path fill="#3F3F3F" stroke="#3F3F3F" stroke-linecap="round" stroke-linejoin="round" stroke-width=".5" d="M180.716,213.001 v-17h2.5c0,0,3,7.979-0.167,17H180.716z"/><path fill="#3F3F3F" stroke="#3F3F3F" stroke-linecap="round" stroke-linejoin="round" stroke-width=".5" d="M134.833,196.001 v17.166h-2.5c0,0-3-8.057,0.167-17.166H134.833z"/><path fill="#3F3F3F" stroke="#3F3F3F" stroke-linecap="round" stroke-linejoin="round" stroke-width=".5" d="M143,195.334v17.832 h-2.5c0,0-3-8.369,0.167-17.832H143z"/><path fill="#3F3F3F" stroke="#3F3F3F" stroke-linecap="round" stroke-linejoin="round" stroke-width=".5" d="M150.833,195.668 V213.5h-2.5c0,0-3-8.369,0.167-17.832H150.833z"/><path fill="#3F3F3F" stroke="#3F3F3F" stroke-linecap="round" stroke-linejoin="round" stroke-width=".5" d="M177.834,212.366 c0,0.994-0.807,1.8-1.801,1.8H155.3c-0.994,0-1.8-0.806-1.8-1.8v-8.733c0-0.994,0.806-1.8,1.8-1.8h20.733 c0.994,0,1.801,0.806,1.801,1.8V212.366z"/><path fill="#B2B2B2" stroke="#B2B2B2" stroke-linecap="round" stroke-linejoin="round" stroke-width=".5" d="M175.167,211.701 c0,0.994-0.806,1.8-1.8,1.8h-15.233c-0.995,0-1.8-0.806-1.8-1.8v-5.4c0-0.994,0.805-1.8,1.8-1.8h15.233c0.994,0,1.8,0.806,1.8,1.8 V211.701z"/><path fill="#3F3F3F" stroke="#3F3F3F" stroke-linecap="round" stroke-linejoin="round" stroke-width=".5" d="M173.334,210.701 c0,0.994-0.806,1.8-1.8,1.8H160.3c-0.994,0-1.8-0.806-1.8-1.8v-2.734c0-0.994,0.806-1.8,1.8-1.8h11.234c0.994,0,1.8,0.806,1.8,1.8 V210.701z"/><rect width="3.499" height="1" x="160.667" y="213.5" fill="#3F3F3F" stroke="#3F3F3F" stroke-linecap="round" stroke-linejoin="round" stroke-width=".5"/><rect width="3.499" height="1" x="165.167" y="213.5" fill="#3F3F3F" stroke="#3F3F3F" stroke-linecap="round" stroke-linejoin="round" stroke-width=".5"/><rect width="3.499" height="1" x="169.667" y="213.5" fill="#3F3F3F" stroke="#3F3F3F" stroke-linecap="round" stroke-linejoin="round" stroke-width=".5"/></g><g><rect width="49.167" height="48.833" x="128.5" y="78.417" fill="#FFF" stroke="#000" stroke-linecap="round" stroke-linejoin="round" stroke-width=".5"/><g><polygon fill="none" stroke="#000" stroke-linecap="round" stroke-linejoin="round" stroke-width=".5" points="155 86.25 153.945 83.959 152.892 81.666 151.837 83.959 150.782 86.25 151.75 86.084 151.75 100.084 154 100.084 154 86.084"/></g><g><polygon fill="none" stroke="#000" stroke-linecap="round" stroke-linejoin="round" stroke-width=".5" points="150.781 119.831 151.836 122.123 152.89 124.415 153.944 122.123 155 119.831 154.031 119.998 154.031 105.998 151.781 105.998 151.781 119.998"/></g><g><polygon fill="none" stroke="#000" stroke-linecap="round" stroke-linejoin="round" stroke-width=".5" points="136.1 100.931 133.808 101.986 131.516 103.04 133.808 104.095 136.1 105.149 135.933 104.182 149.933 104.182 149.933 101.932 135.933 101.932"/></g><g><polygon fill="none" stroke="#000" stroke-linecap="round" stroke-linejoin="round" stroke-width=".5" points="169.682 105.15 171.973 104.096 174.266 103.042 171.973 101.987 169.682 100.932 169.848 101.9 155.848 101.9 155.848 104.15 169.848 104.15"/></g><g><polygon fill="none" stroke="#000" stroke-linecap="round" stroke-linejoin="round" stroke-width=".5" points="139.609 113.338 138.735 115.705 137.859 118.07 140.226 117.195 142.592 116.32 141.79 115.755 151.689 105.855 150.098 104.264 140.199 114.164"/></g><g><polygon fill="none" stroke="#000" stroke-linecap="round" stroke-linejoin="round" stroke-width=".5" points="166.339 92.576 167.213 90.21 168.089 87.844 165.722 88.719 163.355 89.593 164.158 90.16 154.259 100.06 155.85 101.65 165.749 91.752"/></g><g><polygon fill="none" stroke="#000" stroke-linecap="round" stroke-linejoin="round" stroke-width=".5" points="142.427 89.676 140.06 88.802 137.694 87.926 138.569 90.293 139.444 92.659 140.01 91.856 149.909 101.756 151.5 100.165 141.601 90.266"/></g><g><polygon fill="none" stroke="#000" stroke-linecap="round" stroke-linejoin="round" stroke-width=".5" points="163.189 116.405 165.555 117.279 167.921 118.156 167.045 115.789 166.172 113.422 165.604 114.225 155.705 104.326 154.114 105.916 164.013 115.816"/></g></g><g><rect width="105.667" height="24.667" x="104.833" y="167.251" fill="#3F3F3F"/><polyline fill="#B2B2B2" stroke="#B2B2B2" stroke-linecap="round" stroke-linejoin="round" stroke-width=".5" points="104.833 167.251 109.834 160.251 205.167 160.251 210.501 167.251"/><path fill="#FFF" stroke="#FFF" stroke-linecap="round" stroke-linejoin="round" stroke-width=".5" d="M112.667,187.917 v-17.833c0,0,57-4.166,90,0.167v18C202.667,188.251,142.667,192.75,112.667,187.917z"/><path fill="#3F3F3F" stroke="#3F3F3F" stroke-linecap="round" stroke-linejoin="round" stroke-width=".5" d="M118.667,171.084 v16.333h-2.5c0,0-3-7.666,0.167-16.333H118.667z"/><path fill="#3F3F3F" stroke="#3F3F3F" stroke-linecap="round" stroke-linejoin="round" stroke-width=".5" d="M126.833,171.084 v16.333h-2.5c0,0-3-7.666,0.167-16.333H126.833z"/><path fill="#3F3F3F" stroke="#3F3F3F" stroke-linecap="round" stroke-linejoin="round" stroke-width=".5" d="M196.882,187.417 v-16.333h2.5c0,0,3,7.666-0.167,16.333H196.882z"/><path fill="#3F3F3F" stroke="#3F3F3F" stroke-linecap="round" stroke-linejoin="round" stroke-width=".5" d="M189.049,187.417 v-17h2.5c0,0,3,7.979-0.167,17H189.049z"/><path fill="#3F3F3F" stroke="#3F3F3F" stroke-linecap="round" stroke-linejoin="round" stroke-width=".5" d="M180.716,187.751 v-17h2.5c0,0,3,7.979-0.167,17H180.716z"/><path fill="#3F3F3F" stroke="#3F3F3F" stroke-linecap="round" stroke-linejoin="round" stroke-width=".5" d="M134.833,170.751 v17.166h-2.5c0,0-3-8.057,0.167-17.166H134.833z"/><path fill="#3F3F3F" stroke="#3F3F3F" stroke-linecap="round" stroke-linejoin="round" stroke-width=".5" d="M143,170.084v17.832 h-2.5c0,0-3-8.369,0.167-17.832H143z"/><path fill="#3F3F3F" stroke="#3F3F3F" stroke-linecap="round" stroke-linejoin="round" stroke-width=".5" d="M150.833,170.418 v17.832h-2.5c0,0-3-8.369,0.167-17.832H150.833z"/><path fill="#3F3F3F" stroke="#3F3F3F" stroke-linecap="round" stroke-linejoin="round" stroke-width=".5" d="M177.834,187.116 c0,0.994-0.807,1.8-1.801,1.8H155.3c-0.994,0-1.8-0.806-1.8-1.8v-8.733c0-0.994,0.806-1.8,1.8-1.8h20.733 c0.994,0,1.801,0.806,1.801,1.8V187.116z"/><path fill="#B2B2B2" stroke="#B2B2B2" stroke-linecap="round" stroke-linejoin="round" stroke-width=".5" d="M175.167,186.451 c0,0.994-0.806,1.8-1.8,1.8h-15.233c-0.995,0-1.8-0.806-1.8-1.8v-5.4c0-0.994,0.805-1.8,1.8-1.8h15.233c0.994,0,1.8,0.806,1.8,1.8 V186.451z"/><path fill="#3F3F3F" stroke="#3F3F3F" stroke-linecap="round" stroke-linejoin="round" stroke-width=".5" d="M173.334,185.451 c0,0.994-0.806,1.8-1.8,1.8H160.3c-0.994,0-1.8-0.806-1.8-1.8v-2.734c0-0.994,0.806-1.8,1.8-1.8h11.234c0.994,0,1.8,0.806,1.8,1.8 V185.451z"/><rect width="3.499" height="1" x="160.667" y="188.25" fill="#3F3F3F" stroke="#3F3F3F" stroke-linecap="round" stroke-linejoin="round" stroke-width=".5"/><rect width="3.499" height="1" x="165.167" y="188.25" fill="#3F3F3F" stroke="#3F3F3F" stroke-linecap="round" stroke-linejoin="round" stroke-width=".5"/><rect width="3.499" height="1" x="169.667" y="188.25" fill="#3F3F3F" stroke="#3F3F3F" stroke-linecap="round" stroke-linejoin="round" stroke-width=".5"/></g><circle cx="136.417" cy="78.5" r="1.25"/><circle cx="160.25" cy="127.166" r="1.25"/><circle cx="171.083" cy="127.166" r="1.25"/><circle cx="135.308" cy="127.166" r="1.25"/><circle cx="146.141" cy="127.166" r="1.25"/><circle cx="147.25" cy="78.5" r="1.25"/><circle cx="159.083" cy="78.5" r="1.25"/><circle cx="169.916" cy="78.5" r="1.25"/></g></svg>