<svg xmlns="http://www.w3.org/2000/svg" xmlns:svg="http://www.w3.org/2000/svg" id="Layer_1" width="299.334" height="205" x="0" y="0" contentScriptType="application/ecmascript" contentStyleType="text/css" enable-background="new 0 0 299.334 205" preserveAspectRatio="xMidYMid meet" version="1.1" viewBox="0 0 299.334 205" zoomAndPan="magnify" xml:space="preserve"><rect id="rect9" width="288.889" height="125.641" x="6.235" y="5.965" fill="#BCBEC0" stroke="#000" stroke-width=".55"/><text id="text11" x="110.759" y="22.364" font-family="Helvetica" font-size="9">Local tier (aggregate)</text><path id="path13" fill="#FFF" stroke="#000" stroke-width=".55" d="M270.826,110.104c0,5.965-4.836,10.801-10.8,10.801H41.264 c-5.964,0-10.799-4.836-10.799-10.801V42.799C30.465,36.835,35.3,32,41.264,32h218.763c5.964,0,10.8,4.835,10.8,10.799V110.104z"/><path id="path15" fill="none" stroke="#A7A9AC" stroke-dasharray="6" stroke-width="2" d="M208.446,87.792c0,4.07-4.834,7.37-10.799,7.37 h-71.491c-5.964,0-10.8-3.3-10.8-7.37V65.294c0-4.069,4.836-7.369,10.8-7.369h71.491c5.965,0,10.799,3.299,10.799,7.369V87.792z"/><text id="text17" font-family="'Helvetica'" font-size="9" transform="matrix(1 0 0 1 136.7065 52.2954)">Plex0 (pool0)</text><g id="g35"><circle id="circle19" cx="148.119" cy="70.137" r="3.775" fill="#999" stroke="#000" stroke-width=".5"/><circle id="circle21" cx="156.929" cy="70.137" r="3.775" fill="#999" stroke="#000" stroke-width=".5"/><circle id="circle23" cx="165.738" cy="70.137" r="3.774" fill="#999" stroke="#000" stroke-width=".5"/><circle id="circle25" cx="174.548" cy="70.137" r="3.775" fill="#999" stroke="#000" stroke-width=".5"/><circle id="circle27" cx="148.119" cy="80.625" r="3.775" fill="#999" stroke="#000" stroke-width=".5"/><circle id="circle29" cx="156.929" cy="80.625" r="3.775" fill="#999" stroke="#000" stroke-width=".5"/><circle id="circle31" cx="165.738" cy="80.625" r="3.774" fill="#999" stroke="#000" stroke-width=".5"/><circle id="circle33" cx="174.548" cy="80.625" r="3.775" fill="#999" stroke="#000" stroke-width=".5"/></g><g id="g41"><line id="line37" x1="99.075" x2="134.921" y1="70.064" y2="70.064" fill="none" stroke="#FFF" stroke-linecap="round" stroke-linejoin="round" stroke-width="3"/><line id="line39" x1="99.075" x2="134.921" y1="70.064" y2="70.064" fill="none" stroke="#000" stroke-linecap="round" stroke-linejoin="round" stroke-width=".5"/></g><g id="g47"><line id="line43" x1="99.075" x2="134.921" y1="81.064" y2="81.064" fill="none" stroke="#FFF" stroke-linecap="round" stroke-linejoin="round" stroke-width="3"/><line id="line45" x1="99.075" x2="134.921" y1="81.064" y2="81.064" fill="none" stroke="#000" stroke-linecap="round" stroke-linejoin="round" stroke-width=".5"/></g><rect id="rect49" width="16.667" height="10.666" x="77.646" y="66.452" fill="none"/><text id="text51" font-family="'Helvetica'" font-size="9" transform="matrix(1 0 0 1 77.646 72.9141)">rg0</text><rect id="rect53" width="17.667" height="11" x="77.646" y="78.119" fill="none"/><text id="text55" font-family="'Helvetica'" font-size="9" transform="matrix(1 0 0 1 77.6455 84.5811)">rg1</text><circle id="circle57" cx="53.652" cy="165.962" r="3.774" fill="#999" stroke="#000" stroke-width=".5"/><circle id="circle59" cx="53.663" cy="179.226" r="3.774" fill="#999" stroke="#000" stroke-width=".5"/><circle id="circle61" cx="44.163" cy="179.226" r="3.774" fill="#999" stroke="#000" stroke-width=".5"/><circle id="circle63" cx="34.512" cy="179.226" r="3.774" fill="#999" stroke="#000" stroke-width=".5"/><circle id="circle65" cx="25.012" cy="179.226" r="3.774" fill="#999" stroke="#000" stroke-width=".5"/><rect id="rect67" width="172.439" height="57.157" x="6.207" y="141.962" fill="none" stroke="#000" stroke-width=".55"/><text id="text69" font-family="'Helvetica'" font-size="9" transform="matrix(1 0 0 1 9.5078 152.4902)">Legend</text><polyline id="polyline71" fill="none" stroke="#000" stroke-width=".55" points="5.812 159.226 44.812 159.226 44.812 142.226"/><rect id="rect73" width="110" height="8" x="63.979" y="162.785" fill="none"/><text id="text75" font-family="Helvetica" font-size="9" transform="translate(63.979,169.2471)">Array LUN in the local tier</text><rect id="rect77" width="107.667" height="10.667" x="63.979" y="177.452" fill="none"/><text id="text79" font-family="Helvetica" font-size="9" transform="translate(63.979,183.9141)">ONTAP RAID group</text></svg>