<svg xmlns="http://www.w3.org/2000/svg" xmlns:xlink="http://www.w3.org/1999/xlink" width="340.531" height="171.334" x="0" y="0" contentScriptType="application/ecmascript" contentStyleType="text/css" enable-background="new 0 0 340.531 171.334" preserveAspectRatio="xMidYMid meet" version="1.1" viewBox="0 0 340.531 171.334" zoomAndPan="magnify" xml:space="preserve"><g id="outline"><polyline fill="none" stroke="#000" stroke-linecap="round" stroke-linejoin="round" stroke-width=".5" points="40.356 30.704 40.356 2 305.78 2 305.78 38.584"/><path fill="none" stroke="#000" stroke-linecap="round" stroke-linejoin="round" stroke-width=".5" d="M300.842,65.756"/><path fill="none" stroke="#000" stroke-linecap="round" stroke-linejoin="round" stroke-width=".5" d="M90.925,46.678 c0,0.41-0.217,0.742-0.484,0.742h-9.454c-0.268,0-0.484-0.332-0.484-0.742v-4.963c0-0.41,0.216-0.743,0.484-0.743h9.454 c0.268,0,0.484,0.333,0.484,0.743V46.678z"/><path fill="none" stroke="#000" stroke-linecap="round" stroke-linejoin="round" stroke-width=".5" d="M103.807,46.678 c0,0.41-0.217,0.742-0.484,0.742h-9.455c-0.268,0-0.484-0.332-0.484-0.742v-4.963c0-0.41,0.216-0.743,0.484-0.743h9.455 c0.267,0,0.484,0.333,0.484,0.743V46.678z"/><path fill="none" stroke="#000" stroke-linecap="round" stroke-linejoin="round" stroke-width=".5" d="M116.688,46.678 c0,0.41-0.217,0.742-0.484,0.742h-9.454c-0.268,0-0.484-0.332-0.484-0.742v-4.963c0-0.41,0.216-0.743,0.484-0.743h9.454 c0.268,0,0.484,0.333,0.484,0.743V46.678z"/><path fill="none" stroke="#000" stroke-linecap="round" stroke-linejoin="round" stroke-width=".5" d="M293.699,17.426 c0,0.332-0.442,0.6-0.989,0.6h-19.311c-0.547,0-0.988-0.269-0.988-0.6v-4.015c0-0.332,0.441-0.6,0.988-0.6h19.311 c0.547,0,0.989,0.269,0.989,0.6V17.426z"/><path fill="none" stroke="#000" stroke-linecap="round" stroke-linejoin="round" stroke-width=".5" d="M268.211,17.426 c0,0.332-0.442,0.6-0.989,0.6H247.91c-0.546,0-0.988-0.269-0.988-0.6v-4.015c0-0.332,0.442-0.6,0.988-0.6h19.312 c0.547,0,0.989,0.269,0.989,0.6V17.426z"/><line x1="40.102" x2="305.575" y1="11.521" y2="11.521" fill="none" stroke="#000" stroke-linecap="round" stroke-linejoin="round" stroke-width=".5"/><line x1="40.65" x2="305.575" y1="18.921" y2="18.921" fill="none" stroke="#000" stroke-linecap="round" stroke-linejoin="round" stroke-width=".5"/><line x1="40.65" x2="305.575" y1="26.595" y2="26.595" fill="none" stroke="#000" stroke-linecap="round" stroke-linejoin="round" stroke-width=".5"/><line x1="77.29" x2="305.695" y1="48.974" y2="48.974" fill="none" stroke="#000" stroke-linecap="round" stroke-linejoin="round" stroke-width=".5"/><polygon stroke="#000" stroke-linecap="round" stroke-linejoin="round" stroke-width=".5" points="118.183 16.554 117.686 15.693 117.188 14.832 118.183 14.832 119.178 14.832 118.68 15.693"/><polygon stroke="#000" stroke-linecap="round" stroke-linejoin="round" stroke-width=".5" points="219.314 8.058 218.817 7.197 218.32 6.335 219.314 6.335 220.31 6.335 219.812 7.197"/><polygon stroke="#000" stroke-linecap="round" stroke-linejoin="round" stroke-width=".5" points="251.655 8.058 251.158 7.197 250.661 6.335 251.655 6.335 252.65 6.335 252.152 7.197"/><g><polygon fill="#8C8C8C" stroke="#000" stroke-linecap="round" stroke-linejoin="round" stroke-width=".5" points="43.35 25.246 41.771 23.667 41.771 21.433 43.35 19.854 45.584 19.854 47.164 21.433 47.164 23.667 45.584 25.246"/><rect width="3.668" height="4.085" x="42.717" y="20.632" fill="none"/><text fill="#FFF" font-family="'Helvetica'" font-size="5.253" transform="matrix(1 0 0 1 42.7163 24.4033)">X</text></g><line x1="263.038" x2="263.038" y1="12.821" y2="17.754" fill="none" stroke="#000" stroke-linecap="round" stroke-linejoin="round" stroke-width=".5"/><polyline fill="none" stroke="#000" stroke-linecap="round" stroke-linejoin="round" stroke-width=".5" points="266.422 14.763 265.925 15.624 265.428 16.485 264.931 15.624 264.433 14.763"/><g><path fill="none" stroke="#000" stroke-linecap="round" stroke-linejoin="round" stroke-width=".5" d="M303.018,16.47 c0,0.709-0.574,1.285-1.284,1.285h-2.569c-0.71,0-1.285-0.575-1.285-1.285V13.9c0-0.709,0.575-1.285,1.285-1.285h2.569 c0.71,0,1.284,0.575,1.284,1.285V16.47z"/><g><circle cx="300.038" cy="14.671" r="1.13" fill="none" stroke="#000" stroke-linecap="round" stroke-linejoin="round" stroke-width=".5"/><line x1="300.728" x2="301.813" y1="15.586" y2="16.839" fill="none" stroke="#000" stroke-linecap="round" stroke-linejoin="round" stroke-width=".5"/></g></g><rect width="35.355" height="138.543" x="40.425" y="30.704" fill="none" stroke="#000" stroke-linecap="round" stroke-linejoin="round" stroke-width=".5"/></g><g id="lines"><line x1="44.33" x2="36.313" y1="16.179" y2="16.179" fill="none" stroke="#FFF" stroke-linecap="round" stroke-linejoin="round" stroke-width="3"/><line x1="44.33" x2="36.313" y1="16.179" y2="16.179" fill="none" stroke="#000" stroke-linecap="round" stroke-linejoin="round" stroke-width=".5"/><line x1="44.33" x2="36.313" y1="7.134" y2="7.134" fill="none" stroke="#FFF" stroke-linecap="round" stroke-linejoin="round" stroke-width="3"/><line x1="44.33" x2="36.313" y1="7.134" y2="7.134" fill="none" stroke="#000" stroke-linecap="round" stroke-linejoin="round" stroke-width=".5"/><line x1="309.356" x2="306.273" y1="15.356" y2="15.356" fill="none" stroke="#000" stroke-linecap="round" stroke-linejoin="round" stroke-width=".5"/><line x1="50.497" x2="36.246" y1="99.77" y2="99.77" fill="none" stroke="#FFF" stroke-linecap="round" stroke-linejoin="round" stroke-width="3"/><line x1="50.497" x2="36.246" y1="99.77" y2="99.77" fill="none" stroke="#000" stroke-linecap="round" stroke-linejoin="round" stroke-width=".5"/><line x1="310.041" x2="295.79" y1="99.496" y2="99.496" fill="none" stroke="#FFF" stroke-linecap="round" stroke-linejoin="round" stroke-width="3"/><line x1="310.041" x2="295.79" y1="99.496" y2="99.496" fill="none" stroke="#000" stroke-linecap="round" stroke-linejoin="round" stroke-width=".5"/><line x1="81.741" x2="36.246" y1="44.682" y2="44.682" fill="none" stroke="#FFF" stroke-linecap="round" stroke-linejoin="round" stroke-width="3"/><line x1="81.741" x2="36.246" y1="44.682" y2="44.682" fill="none" stroke="#000" stroke-linecap="round" stroke-linejoin="round" stroke-width=".5"/><g><polyline fill="none" stroke="#FFF" stroke-linecap="round" stroke-linejoin="round" stroke-width="3" points="300.723 22.962 318.537 22.962 318.537 25.977"/></g><g><polyline fill="none" stroke="#000" stroke-linecap="round" stroke-linejoin="round" stroke-width=".5" points="300.723 22.962 318.537 22.962 318.537 25.977"/></g></g><g id="text"><rect width="26.146" height="5.756" x="45.811" y="13.726" fill="none"/><text font-family="'Helvetica'" font-size="4.933" transform="matrix(1 0 0 1 45.8105 17.2671)">Dashboard</text><rect width="15.293" height="5.756" x="77.712" y="13.726" fill="none"/><text font-family="'Helvetica'" font-size="4.933" transform="matrix(1 0 0 1 77.7114 17.2671)">Events</text><rect width="21.596" height="5.755" x="284.088" y="5.504" fill="none"/><text font-family="'Helvetica'" font-size="4.111" transform="matrix(1 0 0 1 284.0869 8.4551)">Sign Out</text><rect width="15.224" height="4.317" x="276.277" y="13.52" fill="none"/><text font-family="'Helvetica'" font-size="4.111" transform="matrix(1 0 0 1 276.2764 16.4712)">Search</text><rect width="21.321" height="5.755" x="258.052" y="5.504" fill="none"/><text font-family="'Helvetica'" font-size="4.111" transform="matrix(1 0 0 1 258.0508 8.4551)">username</text><rect width="27.899" height="5.755" x="224.066" y="5.504" fill="none"/><text font-family="'Helvetica'" font-size="4.111" transform="matrix(1 0 0 1 224.0654 8.4551)">Administration</text><rect width="14.743" height="5.755" x="209.268" y="5.504" fill="none"/><text font-family="'Helvetica'" font-size="4.111" transform="matrix(1 0 0 1 209.2656 8.4551)">Help</text><rect width="13.32" height="5.756" x="124.085" y="13.726" fill="none"/><text font-family="'Helvetica'" font-size="4.933" transform="matrix(1 0 0 1 124.0845 17.2671)">Jobs</text><rect width="18.253" height="5.756" x="99.09" y="13.726" fill="none"/><text font-family="'Helvetica'" font-size="4.933" transform="matrix(1 0 0 1 99.0889 17.2671)">Storage</text><rect width="160.66" height="5.756" x="46.468" y="5.174" fill="none"/><text font-family="'Helvetica'" font-size="4.933" transform="matrix(1 0 0 1 46.4673 8.7158)">IBM N series OnCommand Unified Manager</text><rect width="26.311" height="5.55" x="8.77" y="3.982" fill="none"/><text font-family="'Helvetica'" font-size="5.344" transform="matrix(1 0 0 1 12.5059 7.8193)">Menu bar</text><rect width="35.081" height="5.55" y="13.575" fill="none"/><text font-family="'Helvetica'" font-size="5.344" transform="matrix(1 0 0 1 0.6255 17.4116)">Navigation bar</text><rect width="30.695" height="7.605" x="3.563" y="97.167" fill="none"/><text font-family="'Helvetica'" font-size="5.344" transform="matrix(1 0 0 1 6.3394 101.0034)">Filters pane</text><rect width="32.888" height="12.265" x="1.371" y="42.079" fill="none"/><text transform="matrix(1 0 0 1 9.6099 45.9146)"><tspan x="0" y="0" font-family="'Helvetica'" font-size="5.344">Command </tspan><tspan x="7.119" y="6.413" font-family="'Helvetica'" font-size="5.344">buttons</tspan></text><rect width="27.406" height="6.938" x="311.275" y="12.984" fill="none"/><text font-family="'Helvetica'" font-size="5.344" transform="matrix(1 0 0 1 311.2744 16.8208)">Search bar</text><rect width="19.596" height="12.692" x="311.275" y="94.109" fill="none"/><text transform="matrix(1 0 0 1 311.2744 97.9463)"><tspan x="0" y="0" font-family="'Helvetica'" font-size="5.344">List of </tspan><tspan x="0" y="6.413" font-family="'Helvetica'" font-size="5.344">objects</tspan></text><line x1="73.519" x2="73.519" y1="11.793" y2="18.782" stroke="#000" stroke-width=".5"/><line x1="95.718" x2="95.718" y1="11.793" y2="18.782" stroke="#000" stroke-width=".5"/><line x1="122.851" x2="122.851" y1="11.793" y2="18.782" stroke="#000" stroke-width=".5"/><line x1="136.829" x2="136.829" y1="11.793" y2="18.782" stroke="#000" stroke-width=".5"/><line x1="222.133" x2="222.133" y1="4.599" y2="9.943" fill="none" stroke="#000" stroke-linecap="round" stroke-linejoin="round" stroke-width=".5"/><line x1="255.021" x2="255.021" y1="4.599" y2="9.943" fill="none" stroke="#000" stroke-linecap="round" stroke-linejoin="round" stroke-width=".5"/><line x1="279.482" x2="279.482" y1="4.599" y2="9.943" fill="none" stroke="#000" stroke-linecap="round" stroke-linejoin="round" stroke-width=".5"/><rect width="228.369" height="130.732" x="77.356" y="38.31" fill="none" stroke="#000" stroke-linecap="round" stroke-linejoin="round" stroke-width=".5"/><rect width="29.326" height="23.913" x="311.205" y="27.279" fill="none"/><text transform="matrix(1 0 0 1 311.2051 31.1152)"><tspan x="0" y="0" font-family="'Helvetica'" font-size="5.344">Cluster </tspan><tspan x="0" y="6.413" font-family="'Helvetica'" font-size="5.344">availability </tspan><tspan x="0" y="12.826" font-family="'Helvetica'" font-size="5.344">details pane</tspan></text></g></svg>