<svg xmlns="http://www.w3.org/2000/svg" xmlns:xlink="http://www.w3.org/1999/xlink" width="417.667" height="261.042" contentScriptType="application/ecmascript" contentStyleType="text/css" enable-background="new 0 0 417.667 261.042" overflow="visible" preserveAspectRatio="xMidYMid meet" version="1.1" viewBox="0 0 417.667 261.042" zoomAndPan="magnify" xml:space="preserve"><g id="outline"><rect width="322.817" height="260.542" x="47.417" y=".25" fill="none" stroke="#000" stroke-linecap="round" stroke-linejoin="round" stroke-width=".5"/><path fill="none" stroke="#000" stroke-linecap="round" stroke-linejoin="round" stroke-width=".5" d="M364.562,103.992"/><rect width="317.296" height="62.2" x="50.115" y="9.418" fill="none" stroke="#000" stroke-linecap="round" stroke-linejoin="round" stroke-width=".5"/><path fill="none" stroke="#000" stroke-linecap="round" stroke-linejoin="round" stroke-width=".5" d="M89.683,238.596 c0,2.313-1.406,4.187-3.142,4.187H53.256c-1.736,0-3.142-1.874-3.142-4.187V78.8c0-2.312,1.406-4.185,3.142-4.185h33.285 c1.735,0,3.142,1.873,3.142,4.185V238.596z"/><path fill="none" stroke="#000" stroke-linecap="round" stroke-linejoin="round" stroke-width=".5" d="M367.261,238.937 c0,2.315-1.442,4.194-3.222,4.194h-34.125c-1.779,0-3.222-1.879-3.222-4.194V78.809c0-2.316,1.442-4.193,3.222-4.193h34.125 c1.779,0,3.222,1.876,3.222,4.193V238.937z"/><path fill="none" stroke="#000" stroke-linecap="round" stroke-linejoin="round" stroke-width=".5" d="M323.646,238.454 c0,2.472-1.83,4.478-4.089,4.478H96.77c-2.258,0-4.089-2.006-4.089-4.478V79.094c0-2.474,1.831-4.478,4.089-4.478h222.787 c2.259,0,4.089,2.004,4.089,4.478V238.454z"/><path fill="none" stroke="#000" stroke-linecap="round" stroke-linejoin="round" stroke-width=".5" d="M86.685,234.927 c0,2.518-1.449,4.557-3.237,4.557H55.75c-1.788,0-3.238-2.039-3.238-4.557V87.94c0-2.517,1.45-4.556,3.238-4.556h27.698 c1.788,0,3.237,2.04,3.237,4.556V234.927z"/><path fill="none" stroke="#000" stroke-linecap="round" stroke-linejoin="round" stroke-width=".5" d="M364.863,235.26 c0,2.521-1.492,4.565-3.333,4.565h-28.507c-1.841,0-3.333-2.044-3.333-4.565V87.996c0-2.521,1.492-4.565,3.333-4.565h28.507 c1.841,0,3.333,2.044,3.333,4.565V235.26z"/><path fill="none" stroke="#000" stroke-linecap="round" stroke-linejoin="round" stroke-width=".5" d="M87.135,70.583 c0,0.572-0.729,1.036-1.63,1.036H53.692c-0.9,0-1.629-0.463-1.629-1.036v-6.921c0-0.572,0.729-1.036,1.629-1.036h31.813 c0.901,0,1.63,0.464,1.63,1.036V70.583z"/><path fill="none" stroke="#000" stroke-linecap="round" stroke-linejoin="round" stroke-width=".5" d="M124.455,70.583 c0,0.572-0.729,1.036-1.629,1.036H91.013c-0.901,0-1.63-0.463-1.63-1.036v-6.921c0-0.572,0.729-1.036,1.63-1.036h31.813 c0.9,0,1.629,0.464,1.629,1.036V70.583z"/><path fill="none" stroke="#000" stroke-linecap="round" stroke-linejoin="round" stroke-width=".5" d="M126.254,94.789 c0,0.499-0.617,0.903-1.378,0.903H97.956c-0.762,0-1.378-0.404-1.378-0.903v-6.037c0-0.499,0.617-0.903,1.378-0.903h26.919 c0.761,0,1.378,0.404,1.378,0.903V94.789z"/><path fill="none" stroke="#000" stroke-linecap="round" stroke-linejoin="round" stroke-width=".5" d="M192.351,94.789 c0,0.499-0.617,0.903-1.379,0.903h-26.919c-0.762,0-1.378-0.404-1.378-0.903v-6.037c0-0.499,0.617-0.903,1.378-0.903h26.919 c0.762,0,1.379,0.404,1.379,0.903V94.789z"/><path fill="none" stroke="#000" stroke-linecap="round" stroke-linejoin="round" stroke-width=".5" d="M159.078,94.789 c0,0.499-0.617,0.903-1.379,0.903H130.78c-0.762,0-1.378-0.404-1.378-0.903v-6.037c0-0.499,0.617-0.903,1.378-0.903h26.919 c0.762,0,1.379,0.404,1.379,0.903V94.789z"/><g><path fill="none" stroke="#000" stroke-linecap="round" stroke-linejoin="round" stroke-width=".5" d="M130.353,190.676 c0,0.499-0.617,0.902-1.378,0.902h-26.919c-0.762,0-1.379-0.403-1.379-0.902v-6.036c0-0.499,0.617-0.903,1.379-0.903h26.919 c0.762,0,1.378,0.404,1.378,0.903V190.676z"/><path fill="none" stroke="#000" stroke-linecap="round" stroke-linejoin="round" stroke-width=".5" d="M196.45,190.676 c0,0.499-0.616,0.902-1.378,0.902h-26.919c-0.762,0-1.379-0.403-1.379-0.902v-6.036c0-0.499,0.617-0.903,1.379-0.903h26.919 c0.762,0,1.378,0.404,1.378,0.903V190.676z"/><path fill="none" stroke="#000" stroke-linecap="round" stroke-linejoin="round" stroke-width=".5" d="M163.177,190.676 c0,0.499-0.616,0.902-1.378,0.902H134.88c-0.763,0-1.379-0.403-1.379-0.902v-6.036c0-0.499,0.617-0.903,1.379-0.903h26.918 c0.762,0,1.378,0.404,1.378,0.903V190.676z"/></g><path fill="none" stroke="#000" stroke-linecap="round" stroke-linejoin="round" stroke-width=".5" d="M225.625,94.789 c0,0.499-0.617,0.903-1.379,0.903h-26.919c-0.762,0-1.378-0.404-1.378-0.903v-6.037c0-0.499,0.617-0.903,1.378-0.903h26.919 c0.762,0,1.379,0.404,1.379,0.903V94.789z"/><path fill="none" stroke="#000" stroke-linecap="round" stroke-linejoin="round" stroke-width=".5" d="M161.775,70.583 c0,0.572-0.729,1.036-1.63,1.036h-31.813c-0.9,0-1.629-0.463-1.629-1.036v-6.921c0-0.572,0.729-1.036,1.629-1.036h31.813 c0.901,0,1.63,0.464,1.63,1.036V70.583z"/><path fill="none" stroke="#000" stroke-linecap="round" stroke-linejoin="round" stroke-width=".5" d="M199.095,70.583 c0,0.572-0.729,1.036-1.629,1.036h-31.813c-0.901,0-1.63-0.463-1.63-1.036v-6.921c0-0.572,0.729-1.036,1.63-1.036h31.813 c0.901,0,1.629,0.464,1.629,1.036V70.583z"/><path fill="none" stroke="#000" stroke-linecap="round" stroke-linejoin="round" stroke-width=".5" d="M236.416,70.583 c0,0.572-0.729,1.036-1.63,1.036h-31.812c-0.901,0-1.63-0.463-1.63-1.036v-6.921c0-0.572,0.729-1.036,1.63-1.036h31.812 c0.901,0,1.63,0.464,1.63,1.036V70.583z"/><path fill="none" stroke="#000" stroke-linecap="round" stroke-linejoin="round" stroke-width=".5" d="M273.736,70.583 c0,0.572-0.729,1.036-1.63,1.036h-31.812c-0.901,0-1.631-0.463-1.631-1.036v-6.921c0-0.572,0.729-1.036,1.631-1.036h31.812 c0.9,0,1.63,0.464,1.63,1.036V70.583z"/><rect width="56.205" height="8.543" x="77.236" y="50.935" fill="none" stroke="#000" stroke-linecap="round" stroke-linejoin="round" stroke-width=".5"/><line x1="124.448" x2="124.448" y1="51.384" y2="59.478" fill="none" stroke="#000" stroke-linecap="round" stroke-linejoin="round" stroke-width=".5"/><line x1="50.241" x2="367.119" y1="38.03" y2="38.03" fill="none" stroke="#000" stroke-linecap="round" stroke-linejoin="round" stroke-width=".5"/><rect width="225.452" height="152.051" x="95.118" y="86.378" fill="none" stroke="#000" stroke-linecap="round" stroke-linejoin="round" stroke-width=".5"/><line x1="95.004" x2="320.048" y1="97.582" y2="97.582" fill="none" stroke="#000" stroke-linecap="round" stroke-linejoin="round" stroke-width=".5"/><line x1="95.004" x2="320.273" y1="179.532" y2="179.532" fill="none" stroke="#000" stroke-linecap="round" stroke-linejoin="round" stroke-width=".5"/><path fill="none" stroke="#000" stroke-linecap="round" stroke-linejoin="round" stroke-width=".5" d="M50.415,47.338h249.7 c0,0,12.59,0.3,20.085,2.697c0,0,6.294,4.497,14.388,4.497h32.074"/><polygon stroke="#000" stroke-linecap="round" stroke-linejoin="round" stroke-width=".5" points="128.605 57.228 127.727 55.704 126.846 54.181 128.605 54.181 130.366 54.181 129.485 55.704"/><g><path fill="none" stroke="#000" stroke-linecap="round" stroke-linejoin="round" stroke-width=".5" d="M131.571,84.623H97.854 c-0.954,0-1.727-0.392-1.727-0.876v-5.856c0-0.484,0.772-0.876,1.727-0.876h33.717l2.887,3.722L131.571,84.623z"/><polygon stroke="#000" stroke-linecap="round" stroke-linejoin="round" stroke-width=".5" points="130.186 82.408 129.308 80.884 128.428 79.361 130.186 79.361 131.946 79.361 131.066 80.884"/></g><g><path fill="none" stroke="#000" stroke-linecap="round" stroke-linejoin="round" stroke-width=".5" d="M134.854,84.623h33.717 c0.955,0,1.727-0.392,1.727-0.876v-5.856c0-0.484-0.772-0.876-1.727-0.876h-33.717l2.729,3.847L134.854,84.623z"/><polygon stroke="#000" stroke-linecap="round" stroke-linejoin="round" stroke-width=".5" points="167.186 82.408 166.308 80.884 165.428 79.361 167.186 79.361 168.946 79.361 168.066 80.884"/></g><rect width="218.5" height="44" x="98.083" y="191.611" fill="none" stroke="#000" stroke-linecap="round" stroke-linejoin="round" stroke-width=".5"/></g><g id="lines"><line x1="30.083" x2="20.333" y1="24.445" y2="24.445" fill="none" stroke="#FFF" stroke-linecap="round" stroke-linejoin="round" stroke-width="3"/><line x1="52.583" x2="42.833" y1="43.695" y2="43.695" fill="none" stroke="#000" stroke-linecap="round" stroke-linejoin="round" stroke-width=".5"/><line x1="52.583" x2="42.833" y1="43.695" y2="43.695" fill="none" stroke="#FFF" stroke-linecap="round" stroke-linejoin="round" stroke-width="3"/><line x1="52.583" x2="42.833" y1="43.695" y2="43.695" fill="none" stroke="#000" stroke-linecap="round" stroke-linejoin="round" stroke-width=".5"/><line x1="52.583" x2="42.833" y1="67.445" y2="67.445" fill="none" stroke="#000" stroke-linecap="round" stroke-linejoin="round" stroke-width=".5"/><line x1="52.583" x2="42.833" y1="67.445" y2="67.445" fill="none" stroke="#FFF" stroke-linecap="round" stroke-linejoin="round" stroke-width="3"/><line x1="52.583" x2="42.833" y1="67.445" y2="67.445" fill="none" stroke="#000" stroke-linecap="round" stroke-linejoin="round" stroke-width=".5"/><line x1="60.083" x2="42.75" y1="96.361" y2="96.361" fill="none" stroke="#FFF" stroke-linecap="round" stroke-linejoin="round" stroke-width="3"/><line x1="60.083" x2="42.75" y1="96.361" y2="96.361" fill="none" stroke="#000" stroke-linecap="round" stroke-linejoin="round" stroke-width=".5"/><g><polyline fill="none" stroke="#FFF" stroke-linecap="round" stroke-linejoin="round" stroke-width="3" points="44.23 121.945 113.25 121.945 113.25 81.694"/></g><g><polyline fill="none" stroke="#000" stroke-linecap="round" stroke-linejoin="round" stroke-width=".5" points="43.333 121.945 113.25 121.945 113.25 81.694"/></g><line x1="373.083" x2="351.083" y1="96.111" y2="96.111" fill="none" stroke="#FFF" stroke-linecap="round" stroke-linejoin="round" stroke-width="3"/><line x1="373.083" x2="351.083" y1="96.111" y2="96.111" fill="none" stroke="#000" stroke-linecap="round" stroke-linejoin="round" stroke-width=".5"/><g><polyline fill="none" stroke="#FFF" stroke-linecap="round" stroke-linejoin="round" stroke-width="3" points="373.583 130.111 210.083 130.111 210.083 92.611"/></g><g><polyline fill="none" stroke="#000" stroke-linecap="round" stroke-linejoin="round" stroke-width=".5" points="373.583 130.111 210.083 130.111 210.083 92.611"/></g><line x1="374.083" x2="306.583" y1="161.611" y2="161.611" fill="none" stroke="#FFF" stroke-linecap="round" stroke-linejoin="round" stroke-width="3"/><line x1="374.083" x2="306.583" y1="161.611" y2="161.611" fill="none" stroke="#000" stroke-linecap="round" stroke-linejoin="round" stroke-width=".5"/><line x1="374.083" x2="305.583" y1="199.611" y2="199.611" fill="none" stroke="#FFF" stroke-linecap="round" stroke-linejoin="round" stroke-width="3"/><line x1="374.083" x2="306.083" y1="199.611" y2="199.611" fill="none" stroke="#000" stroke-linecap="round" stroke-linejoin="round" stroke-width=".5"/></g><g id="text"><rect width="30" height="8.5" x="54.75" y="52.611" fill="none"/><text font-family="'Helvetica'" font-size="6" transform="matrix(1 0 0 1 54.7505 56.9194)">Groups:</text><rect width="21" height="7" x="55.583" y="41.111" fill="none"/><text font-family="'Helvetica'" font-size="6" transform="matrix(1 0 0 1 55.5835 45.4194)">File</text><rect width="21" height="7" x="80.083" y="40.611" fill="none"/><text font-family="'Helvetica'" font-size="6" transform="matrix(1 0 0 1 80.0835 44.9194)">View</text><rect width="21" height="7" x="165.583" y="40.611" fill="none"/><text font-family="'Helvetica'" font-size="6" transform="matrix(1 0 0 1 165.5835 44.9194)">Help</text><rect width="51" height="8.5" x="108.583" y="40.611" fill="none"/><text font-family="'Helvetica'" font-size="6" transform="matrix(1 0 0 1 108.5835 44.9194)">Administration</text><rect width="32.5" height="6.5" x="54.583" y="65.111" fill="none"/><text font-family="'Helvetica'" font-size="6" transform="matrix(1 0 0 1 54.5835 69.4194)">Dashboard</text><polyline fill="none" stroke="#000" points="84.114 77.199 82.457 79.184 83.733 81.352"/><polyline fill="none" stroke="#000" points="86.807 77.199 85.15 79.184 86.426 81.352"/><g><polyline fill="none" stroke="#000" points="333.859 81.665 335.515 79.68 334.239 77.513"/><polyline fill="none" stroke="#000" points="331.167 81.666 332.822 79.681 331.545 77.513"/></g><rect width="35.333" height="6.75" x="5" y="39.861" fill="none"/><text font-family="'Helvetica'" font-size="7" transform="matrix(1 0 0 1 10.7656 44.8872)">Menu bar</text><rect width="34.75" height="8.083" x="5.583" y="64.195" fill="none"/><text font-family="'Helvetica'" font-size="7" transform="matrix(1 0 0 1 24.7725 69.2207)">Tabs</text><rect width="40" height="9.25" x=".334" y="93.195" fill="none"/><text font-family="'Helvetica'" font-size="7" transform="matrix(1 0 0 1 2.2119 98.2207)">List of views</text><rect width="26.166" height="27.25" x="377.5" y="84.195" fill="none"/><text transform="matrix(1 0 0 1 377.5005 89.2207)"><tspan x="0" y="0" font-family="'Helvetica'" font-size="7">List of </tspan><tspan x="0" y="8.4" font-family="'Helvetica'" font-size="7">related </tspan><tspan x="0" y="16.8" font-family="'Helvetica'" font-size="7">objects</tspan></text><rect width="40.166" height="32.75" x="377.5" y="183.695" fill="none"/><text transform="matrix(1 0 0 1 377.5005 188.7207)"><tspan x="0" y="0" font-family="'Helvetica'" font-size="7">Details </tspan><tspan x="0" y="8.4" font-family="'Helvetica'" font-size="7">for the </tspan><tspan x="0" y="16.8" font-family="'Helvetica'" font-size="7">selected </tspan><tspan x="0" y="25.2" font-family="'Helvetica'" font-size="7">object</tspan></text><rect width="40.333" height="19.917" y="114.861" fill="none"/><text transform="matrix(1 0 0 1 2.2119 119.8872)"><tspan x="0" y="0" font-family="'Helvetica'" font-size="7">Breadcrumb </tspan><tspan x="24.899" y="8.4" font-family="'Helvetica'" font-size="7"> trail</tspan></text><rect width="33.167" height="17.75" x="377.333" y="122.361" fill="none"/><text transform="matrix(1 0 0 1 377.3335 127.3872)"><tspan x="0" y="0" font-family="'Helvetica'" font-size="7">Command </tspan><tspan x="0" y="8.4" font-family="'Helvetica'" font-size="7">buttons</tspan></text><rect width="23.834" height="15.438" x="377.583" y="153.476" fill="none"/><text transform="matrix(1 0 0 1 377.5835 158.502)"><tspan x="0" y="0" font-family="'Helvetica'" font-size="7">List of </tspan><tspan x="0" y="8.4" font-family="'Helvetica'" font-size="7">objects</tspan></text><g><g><line x1="102.917" x2="43" y1="188.361" y2="188.361" fill="none" stroke="#FFF" stroke-linecap="round" stroke-linejoin="round" stroke-width="3"/><line x1="102.917" x2="43" y1="188.361" y2="188.361" fill="none" stroke="#000" stroke-linecap="round" stroke-linejoin="round" stroke-width=".5"/></g><rect width="21" height="7.667" x="18.833" y="184.611" fill="none"/><text font-family="'Helvetica'" font-size="7" transform="matrix(1 0 0 1 24.2725 189.6377)">Tabs</text></g></g></svg>