<svg xmlns="http://www.w3.org/2000/svg" xmlns:ev="http://www.w3.org/2001/xml-events" xmlns:xlink="http://www.w3.org/1999/xlink" width="626.92" height="564.333" class="st10" color-interpolation-filters="sRGB" viewBox="0 0 470.19 423.25" xml:space="preserve"><style type="text/css">.st1{visibility:visible}.st2,.st3{stroke-linecap:round;stroke-linejoin:round}.st2{fill:#cdcdcd;fill-opacity:.5;stroke:#cdcdcd;stroke-opacity:.5}.st3{fill:url(#grad0-6);stroke:#404040;stroke-width:.25}.st4{fill:#000;font-family:Calibri;font-size:.666664em}.st5,.st6{stroke:#404040}.st5{marker-end:url(#mrkr5-14);stroke-linecap:round;stroke-linejoin:round;stroke-width:1}.st6{fill:#404040;fill-opacity:1;stroke-opacity:1;stroke-width:.28409090909091}.st7,.st8{font-size:1em}.st8{font-style:italic}.st9{fill:none;stroke:none;stroke-linecap:round;stroke-linejoin:round;stroke-width:.25}.st10{fill:none;fill-rule:evenodd;font-size:12px;overflow:visible;stroke-linecap:square;stroke-miterlimit:3}</style><defs id="Patterns_And_Gradients"><linearGradient id="grad0-6" x1="0" x2="1" y1="0" y2="0" gradientTransform="rotate(270 0.5 0.5)"><stop offset="0" stop-color="#f0f0f0" stop-opacity="1"/><stop offset="1" stop-color="#fff" stop-opacity="1"/></linearGradient></defs><defs id="Markers"><g id="lend5"><path d="M 2 1 L 0 0 L 1.98117 -0.993387 C 1.67173 -0.364515 1.67301 0.372641 1.98465 1.00043" style="stroke:none"/></g><marker id="mrkr5-14" class="st6" markerUnits="strokeWidth" orient="auto" overflow="visible" refX="-6.16"><use transform="scale(-3.52,-3.52)" xlink:href="#lend5"/></marker></defs><g><title>Page-1</title><g id="shape6-1" transform="translate(72.5,-304.735)"><title>Process.6</title><desc>Standard cluster.</desc><g id="shadow6-2" class="st1" transform="matrix(1,0,0,1,1.44,1.44)"><rect width="72" height="35.44" x="0" y="387.81" class="st2"/></g><rect width="72" height="35.44" x="0" y="387.81" class="st3"/><text x="8.38" y="407.93" class="st4">Standard cluster.</text></g><g id="shape7-8" transform="translate(54.25,-351)"><title>Dynamic connector.7</title><path d="M0 423.25 L0 451.79 L12.09 451.79" class="st5"/></g><g id="shape10-15" transform="translate(72.5,-68.63)"><title>Process.10</title><desc>Single-node cluster.</desc><g id="shadow10-16" class="st1" transform="matrix(1,0,0,1,1.44,1.44)"><rect width="72" height="37.69" x="0" y="385.56" class="st2"/></g><rect width="72" height="37.69" x="0" y="385.56" class="st3"/><text x="3.91" y="406.81" class="st4">Single-node cluster.</text></g><g id="shape13-21" transform="translate(54.25,-351)"><title>Dynamic connector.13</title><path d="M0 423.25 L0 686.77 L12.09 686.77" class="st5"/></g><g id="shape4-27" transform="translate(18.25,-351)"><title>Decision</title><desc>Select your configuration.</desc><g id="shadow4-28" class="st1"><path d="M0 396.25 L36 369.25 L72 396.25 L36 423.25 L0 396.25 Z" class="st2" transform="matrix(1,0,0,1,1.44,1.44)"/></g><path d="M0 396.25 L36 369.25 L72 396.25 L36 423.25 L0 396.25 Z" class="st3"/><text x="17.91" y="393.85" class="st4">Select your <tspan x="13.19" class="st7" dy="1.2em">configuration.</tspan></text></g><g id="shape16-34" transform="translate(162.75,-295.455)"><title>Decision.16</title><desc>Select your procedure.</desc><g id="shadow16-35" class="st1"><path d="M0 396.25 L36 369.25 L72 396.25 L36 423.25 L0 396.25 Z" class="st2" transform="matrix(1,0,0,1,1.44,1.44)"/></g><path d="M0 396.25 L36 369.25 L72 396.25 L36 423.25 L0 396.25 Z" class="st3"/><text x="17.91" y="393.85" class="st4">Select your <tspan x="18.12" class="st7" dy="1.2em">procedure.</tspan></text></g><g id="shape17-41" transform="translate(144.5,-313.455)"><title>Dynamic connector.17</title><path d="M0 414.25 L12.09 414.25" class="st5"/></g><g id="shape18-47" transform="translate(264.125,-304.455)"><title>Process.18</title><desc>Automated NDU (preferred).</desc><g id="shadow18-48" class="st1" transform="matrix(1,0,0,1,1.44,1.44)"><rect width="72" height="36" x="0" y="387.25" class="st2"/></g><rect width="72" height="36" x="0" y="387.25" class="st3"/><text x="9.08" y="402.85" class="st4">Automated NDU <tspan x="16.99" class="st7" dy="1.2em">(preferred).</tspan></text></g><g id="shape19-54" transform="translate(234.75,-313.455)"><title>Dynamic connector.19</title><path d="M0 414.25 L23.21 414.25" class="st5"/></g><g id="shape20-60" transform="translate(264.125,-245.535)"><title>Process.20</title><desc>Manual NDU</desc><g id="shadow20-61" class="st1" transform="matrix(1,0,0,1,1.44,1.44)"><rect width="72" height="36" x="0" y="387.25" class="st2"/></g><rect width="72" height="36" x="0" y="387.25" class="st3"/><text x="15.11" y="407.65" class="st4">Manual NDU</text></g><g id="shape21-66" transform="translate(234.75,-322.455)"><title>Dynamic connector.21</title><path d="M0 423.25 L18 423.25 L18 482.17 L23.21 482.17" class="st5"/></g><g id="shape22-72" transform="translate(369.5,-298.83)"><title>Process.22</title><desc>See “Upgrading an ONTAP cluster using the automated method.”.</desc><g id="shadow22-73" class="st1" transform="matrix(1,0,0,1,1.44,1.44)"><rect width="81" height="47.25" x="0" y="376" class="st2"/></g><rect width="81" height="47.25" x="0" y="376" class="st3"/><text x="10.32" y="387.62" class="st4">See “Upgrading an <tspan x="7.56" class="st7" dy="1.2em">ONTAP cluster using </tspan><tspan x="16.15" class="st7" dy="1.2em">the automated </tspan><tspan x="23.97" class="st7" dy="1.2em">method.</tspan>”<tspan class="st8">.</tspan></text></g><g id="shape23-82" transform="translate(336.125,-313.455)"><title>Dynamic connector.23</title><path d="M0 414.25 L27.22 414.25" class="st5"/></g><g id="shape24-88" transform="translate(264.125,-150.475)"><title>Decision.24</title><desc>NDU or disruptive?</desc><g id="shadow24-89" class="st1"><path d="M0 396.25 L36 369.25 L72 396.25 L36 423.25 L0 396.25 Z" class="st2" transform="matrix(1,0,0,1,1.44,1.44)"/></g><path d="M0 396.25 L36 369.25 L72 396.25 L36 423.25 L0 396.25 Z" class="st3"/><text x="23.98" y="393.85" class="st4">NDU or <tspan x="17.91" class="st7" dy="1.2em">disruptive?</tspan></text></g><g id="shape25-95" transform="translate(291.125,-245.535)"><title>Dynamic connector.25</title><path d="M9 423.25 L9 458.15" class="st5"/></g><g id="shape34-101" transform="translate(264.125,-60.475)"><title>Process.34</title><desc>See “Upgrading or downgrading a cluster disruptively.”</desc><g id="shadow34-102" class="st1" transform="matrix(1,0,0,1,1.44,1.44)"><rect width="72" height="54" x="0" y="369.25" class="st2"/></g><rect width="72" height="54" x="0" y="369.25" class="st3"/><text x="6.33" y="389.05" class="st4">See “Upgrading or <tspan x="11.81" class="st7" dy="1.2em">downgrading a </tspan><tspan x="2.45" class="st7" dy="1.2em">cluster disruptively.</tspan>”</text></g><g id="shape35-109" transform="translate(291.125,-150.475)"><title>Dynamic connector.35</title><path d="M9 423.25 L9 453.09" class="st5"/></g><g id="shape36-115" transform="translate(371.19,-147.375)"><title>Process.36</title><desc>See “Upgrading or downgrading a cluster nondisruptively with ...</desc><g id="shadow36-116" class="st1" transform="matrix(1,0,0,1,1.44,1.44)"><rect width="81" height="60.75" x="0" y="362.5" class="st2"/></g><rect width="81" height="60.75" x="0" y="362.5" class="st3"/><text x="10.83" y="380.87" class="st4">See “Upgrading or <tspan x="4.41" class="st7" dy="1.2em">downgrading a cluster </tspan><tspan x="7.1" class="st7" dy="1.2em">nondisruptively with </tspan><tspan x="7.5" class="st7" dy="1.2em">the rolling method.</tspan>”</text></g><g id="shape37-124" transform="translate(336.125,-168.613)"><title>Dynamic connector.37</title><path d="M0 414.39 L22 414.39 L22 414.11 L28.9 414.11" class="st5"/></g><g id="shape30-130" transform="translate(144.5,-78.475)"><title>Dynamic connector.30</title><path d="M0 414.25 L113.46 414.25" class="st5"/></g><g id="shape31-136" transform="translate(335.875,-178.035)"><title>Sheet.31</title><desc>NDU</desc><rect width="22.25" height="12" x="0" y="411.25" class="st9"/><text x="2" y="419.65" class="st4">NDU</text></g><g id="shape40-139" transform="translate(302.25,-128.535)"><title>Sheet.40</title><desc>Disruptive</desc><rect width="40.25" height="12" x="0" y="411.25" class="st9"/><text x="2" y="419.65" class="st4">Disruptive</text></g><g id="shape32-142" transform="translate(72.5,-198)"><title>Process.32</title><desc>MetroCluster configuration.</desc><g id="shadow32-143" class="st1" transform="matrix(1,0,0,1,1.44,1.44)"><rect width="72" height="42.19" x="0" y="381.06" class="st2"/></g><rect width="72" height="42.19" x="0" y="381.06" class="st3"/><text x="14.3" y="399.75" class="st4">MetroCluster<tspan x="12.28" class="st7" dy="1.2em"> </tspan>configuration.</text></g><g id="shape33-149" transform="translate(54.25,-351)"><title>Dynamic connector.33</title><path d="M0 423.25 L0 555.15 L12.09 555.15" class="st5"/></g><g id="shape41-155" transform="translate(162.75,-198.845)"><title>Process.41</title><desc>See “Selecting your update method for MetroCluster configurat...</desc><g id="shadow41-156" class="st1" transform="matrix(1,0,0,1,1.44,1.44)"><rect width="72" height="40.5" x="0" y="382.75" class="st2"/></g><rect width="72" height="40.5" x="0" y="382.75" class="st3"/><text x="4.61" y="391" class="st4">See “Selecting your <tspan x="5.08" class="st7" dy="1.2em">update method for </tspan><tspan x="14.3" class="st7" dy="1.2em">MetroCluster </tspan><tspan x="8.94" class="st7" dy="1.2em">configurations.</tspan>”<tspan class="st8">.</tspan></text></g><g id="shape42-165" transform="translate(144.5,-210.095)"><title>Dynamic connector.42</title><path d="M0 414.25 L12.09 414.25" class="st5"/></g></g></svg>